<mxfile host="65bd71144e">
    <diagram name="Page-1" id="bfe91b75-5d2c-26a0-9c1d-138518896778">
        <mxGraphModel dx="1179" dy="909" grid="1" gridSize="10" guides="1" tooltips="1" connect="1" arrows="1" fold="1" page="1" pageScale="1" pageWidth="1100" pageHeight="850" background="none" math="0" shadow="0">
            <root>
                <mxCell id="0"/>
                <mxCell id="1" parent="0"/>
                <mxCell id="KJd_LxnSjkqWvds_a51L-348" style="edgeStyle=orthogonalEdgeStyle;rounded=0;orthogonalLoop=1;jettySize=auto;html=1;fontSize=11;entryX=0;entryY=0.5;entryDx=0;entryDy=0;entryPerimeter=0;endArrow=none;endFill=0;" parent="1" source="7c3789c024ecab99-10" target="xvIyVIgg3RXkF_iqD9qc-2" edge="1">
                    <mxGeometry relative="1" as="geometry">
                        <Array as="points">
                            <mxPoint x="710" y="120"/>
                            <mxPoint x="670" y="120"/>
                            <mxPoint x="670" y="182"/>
                        </Array>
                    </mxGeometry>
                </mxCell>
                <mxCell id="KJd_LxnSjkqWvds_a51L-350" value="eth1" style="edgeLabel;html=1;align=center;verticalAlign=middle;resizable=0;points=[];fontSize=12;" parent="KJd_LxnSjkqWvds_a51L-348" vertex="1" connectable="0">
                    <mxGeometry x="0.7509" y="5" relative="1" as="geometry">
                        <mxPoint x="-3" y="23" as="offset"/>
                    </mxGeometry>
                </mxCell>
                <mxCell id="KJd_LxnSjkqWvds_a51L-353" value="eth2" style="edgeLabel;html=1;align=center;verticalAlign=middle;resizable=0;points=[];fontSize=12;" parent="KJd_LxnSjkqWvds_a51L-348" vertex="1" connectable="0">
                    <mxGeometry x="-0.617" y="3" relative="1" as="geometry">
                        <mxPoint x="-17" y="-13" as="offset"/>
                    </mxGeometry>
                </mxCell>
                <mxCell id="KJd_LxnSjkqWvds_a51L-349" style="edgeStyle=orthogonalEdgeStyle;rounded=0;orthogonalLoop=1;jettySize=auto;html=1;entryX=0;entryY=0.5;entryDx=0;entryDy=0;entryPerimeter=0;fontSize=11;endArrow=none;endFill=0;" parent="1" source="7c3789c024ecab99-10" target="KJd_LxnSjkqWvds_a51L-1" edge="1">
                    <mxGeometry relative="1" as="geometry">
                        <Array as="points">
                            <mxPoint x="650" y="90"/>
                            <mxPoint x="650" y="275"/>
                        </Array>
                    </mxGeometry>
                </mxCell>
                <mxCell id="KJd_LxnSjkqWvds_a51L-351" value="eth1" style="edgeLabel;html=1;align=center;verticalAlign=middle;resizable=0;points=[];fontSize=12;" parent="KJd_LxnSjkqWvds_a51L-349" vertex="1" connectable="0">
                    <mxGeometry x="0.8398" y="3" relative="1" as="geometry">
                        <mxPoint x="-1" y="-12" as="offset"/>
                    </mxGeometry>
                </mxCell>
                <mxCell id="KJd_LxnSjkqWvds_a51L-352" value="eth3" style="edgeLabel;html=1;align=center;verticalAlign=middle;resizable=0;points=[];fontSize=12;" parent="KJd_LxnSjkqWvds_a51L-349" vertex="1" connectable="0">
                    <mxGeometry x="-0.8182" y="1" relative="1" as="geometry">
                        <mxPoint x="4" y="-13" as="offset"/>
                    </mxGeometry>
                </mxCell>
                <mxCell id="7c3789c024ecab99-10" value="MikroTik&lt;br&gt;RB5009UG+S+&lt;br&gt;(RT01-Office-NR2)" style="fontColor=#0066CC;verticalAlign=bottom;verticalLabelPosition=top;labelPosition=center;align=center;html=1;fillColor=#CCCCCC;strokeColor=#6881B3;gradientColor=none;gradientDirection=north;strokeWidth=2;shape=mxgraph.networks.router;rounded=0;shadow=0;comic=0;" parent="1" vertex="1">
                    <mxGeometry x="690" y="77" width="100" height="30" as="geometry"/>
                </mxCell>
                <mxCell id="7c3789c024ecab99-5" value="Office Desktop" style="fontColor=#0066CC;verticalAlign=top;verticalLabelPosition=bottom;labelPosition=center;align=center;html=1;fillColor=#CCCCCC;strokeColor=#6881B3;gradientColor=none;gradientDirection=north;strokeWidth=2;shape=mxgraph.networks.pc;rounded=0;shadow=0;comic=0;" parent="1" vertex="1">
                    <mxGeometry x="690.0000000000002" y="485" width="100" height="70" as="geometry"/>
                </mxCell>
                <mxCell id="7c3789c024ecab99-11" value="" style="html=1;fillColor=#CCCCCC;strokeColor=#6881B3;gradientColor=none;gradientDirection=north;strokeWidth=2;shape=mxgraph.networks.comm_link_edge;html=1;labelBackgroundColor=none;endArrow=none;endFill=0;fontFamily=Verdana;fontSize=20;" parent="1" edge="1">
                    <mxGeometry width="100" height="100" relative="1" as="geometry">
                        <mxPoint x="500" y="204.5" as="sourcePoint"/>
                        <mxPoint x="300" y="134.5" as="targetPoint"/>
                    </mxGeometry>
                </mxCell>
                <mxCell id="7c3789c024ecab99-9" value="MikroTik wAP ac&lt;br&gt;RBwAPG-5HacD2HnD&lt;br&gt;(AP02-Patio)" style="fontColor=#0066CC;verticalAlign=top;verticalLabelPosition=bottom;labelPosition=center;align=center;html=1;fillColor=#CCCCCC;strokeColor=#6881B3;gradientColor=none;gradientDirection=north;strokeWidth=2;shape=mxgraph.networks.wireless_hub;rounded=0;shadow=0;comic=0;" parent="1" vertex="1">
                    <mxGeometry x="490.0000000000002" y="205" width="100" height="85" as="geometry"/>
                </mxCell>
                <mxCell id="7c3789c024ecab99-12" value="Samsung&lt;br&gt;Galaxy S20+" style="fontColor=#0066CC;verticalAlign=top;verticalLabelPosition=bottom;labelPosition=center;align=center;html=1;fillColor=#CCCCCC;strokeColor=#6881B3;gradientColor=none;gradientDirection=north;strokeWidth=2;shape=mxgraph.networks.mobile;rounded=0;shadow=0;comic=0;" parent="1" vertex="1">
                    <mxGeometry x="230.00000000000023" y="30" width="50" height="100" as="geometry"/>
                </mxCell>
                <mxCell id="7c3789c024ecab99-53" value="Internet" style="html=1;fillColor=#CCCCCC;strokeColor=#6881B3;gradientColor=none;gradientDirection=north;strokeWidth=2;shape=mxgraph.networks.cloud;fontColor=#6881B3;rounded=0;shadow=0;comic=0;align=center;fontSize=28;" parent="1" vertex="1">
                    <mxGeometry x="1060" y="22" width="200" height="85" as="geometry"/>
                </mxCell>
                <mxCell id="7c3789c024ecab99-56" style="edgeStyle=none;html=1;labelBackgroundColor=none;endArrow=none;endFill=0;strokeWidth=2;fontFamily=Verdana;fontSize=28;fontColor=#6881B3;" parent="1" source="xvIyVIgg3RXkF_iqD9qc-4" target="7c3789c024ecab99-53" edge="1">
                    <mxGeometry relative="1" as="geometry">
                        <mxPoint x="1030" y="567" as="sourcePoint"/>
                    </mxGeometry>
                </mxCell>
                <mxCell id="xvIyVIgg3RXkF_iqD9qc-1" value="Dahua&lt;br&gt;IPC-T5442T-ZE" style="fontColor=#0066CC;verticalAlign=top;verticalLabelPosition=bottom;labelPosition=center;align=center;html=1;outlineConnect=0;fillColor=#CCCCCC;strokeColor=#6881B3;gradientColor=none;gradientDirection=north;strokeWidth=2;shape=mxgraph.networks.security_camera;" parent="1" vertex="1">
                    <mxGeometry x="1000" y="359.75" width="100" height="75" as="geometry"/>
                </mxCell>
                <mxCell id="KJd_LxnSjkqWvds_a51L-358" style="edgeStyle=orthogonalEdgeStyle;rounded=0;orthogonalLoop=1;jettySize=auto;html=1;fontSize=14;" parent="1" source="xvIyVIgg3RXkF_iqD9qc-2" target="KJd_LxnSjkqWvds_a51L-355" edge="1">
                    <mxGeometry relative="1" as="geometry">
                        <mxPoint x="920" y="490" as="targetPoint"/>
                        <Array as="points">
                            <mxPoint x="890" y="182"/>
                            <mxPoint x="890" y="240"/>
                        </Array>
                    </mxGeometry>
                </mxCell>
                <mxCell id="KJd_LxnSjkqWvds_a51L-361" value="eth2" style="edgeLabel;html=1;align=center;verticalAlign=middle;resizable=0;points=[];fontSize=12;" parent="KJd_LxnSjkqWvds_a51L-358" vertex="1" connectable="0">
                    <mxGeometry x="-0.6838" y="2" relative="1" as="geometry">
                        <mxPoint x="-28" y="-10" as="offset"/>
                    </mxGeometry>
                </mxCell>
                <mxCell id="KJd_LxnSjkqWvds_a51L-362" value="eth1" style="edgeLabel;html=1;align=center;verticalAlign=middle;resizable=0;points=[];fontSize=12;" parent="KJd_LxnSjkqWvds_a51L-358" vertex="1" connectable="0">
                    <mxGeometry x="0.6756" y="-3" relative="1" as="geometry">
                        <mxPoint x="-23" y="-23" as="offset"/>
                    </mxGeometry>
                </mxCell>
                <mxCell id="xvIyVIgg3RXkF_iqD9qc-2" value="MikroTik&lt;br&gt;CRS112-8G-4S&lt;br&gt;(SW01-Office-NR4)" style="fontColor=#0066CC;verticalAlign=bottom;verticalLabelPosition=top;labelPosition=center;align=center;html=1;outlineConnect=0;fillColor=#CCCCCC;strokeColor=#6881B3;gradientColor=none;gradientDirection=north;strokeWidth=2;shape=mxgraph.networks.switch;" parent="1" vertex="1">
                    <mxGeometry x="690" y="167" width="100" height="30" as="geometry"/>
                </mxCell>
                <mxCell id="xvIyVIgg3RXkF_iqD9qc-3" value="Apple&lt;br&gt;iPad Air (4th Gen)" style="fontColor=#0066CC;verticalAlign=top;verticalLabelPosition=bottom;labelPosition=center;align=center;html=1;outlineConnect=0;fillColor=#CCCCCC;strokeColor=#6881B3;gradientColor=none;gradientDirection=north;strokeWidth=2;shape=mxgraph.networks.tablet;" parent="1" vertex="1">
                    <mxGeometry x="205" y="197" width="100" height="70" as="geometry"/>
                </mxCell>
                <mxCell id="KJd_LxnSjkqWvds_a51L-345" value="" style="edgeStyle=orthogonalEdgeStyle;rounded=0;orthogonalLoop=1;jettySize=auto;html=1;fontSize=11;endArrow=none;endFill=0;" parent="1" source="xvIyVIgg3RXkF_iqD9qc-4" target="7c3789c024ecab99-10" edge="1">
                    <mxGeometry relative="1" as="geometry">
                        <Array as="points">
                            <mxPoint x="850" y="92"/>
                            <mxPoint x="850" y="92"/>
                        </Array>
                    </mxGeometry>
                </mxCell>
                <mxCell id="KJd_LxnSjkqWvds_a51L-346" value="eth1" style="edgeLabel;html=1;align=center;verticalAlign=middle;resizable=0;points=[];fontSize=12;" parent="KJd_LxnSjkqWvds_a51L-345" vertex="1" connectable="0">
                    <mxGeometry x="0.4462" y="-1" relative="1" as="geometry">
                        <mxPoint x="1" y="-11" as="offset"/>
                    </mxGeometry>
                </mxCell>
                <mxCell id="KJd_LxnSjkqWvds_a51L-347" value="eth1" style="edgeLabel;html=1;align=center;verticalAlign=middle;resizable=0;points=[];fontSize=12;" parent="KJd_LxnSjkqWvds_a51L-345" vertex="1" connectable="0">
                    <mxGeometry x="-0.3026" y="-1" relative="1" as="geometry">
                        <mxPoint x="4" y="19" as="offset"/>
                    </mxGeometry>
                </mxCell>
                <mxCell id="xvIyVIgg3RXkF_iqD9qc-4" value="AT&amp;amp;T Uverse &lt;br&gt;Pace 5268AC" style="fontColor=#0066CC;verticalAlign=top;verticalLabelPosition=bottom;labelPosition=center;align=center;html=1;outlineConnect=0;fillColor=#CCCCCC;strokeColor=#6881B3;gradientColor=none;gradientDirection=north;strokeWidth=2;shape=mxgraph.networks.wireless_modem;" parent="1" vertex="1">
                    <mxGeometry x="860" y="22" width="100" height="85" as="geometry"/>
                </mxCell>
                <mxCell id="xvIyVIgg3RXkF_iqD9qc-7" value="TRENDnet&lt;br&gt;TC-KP24S" style="fontColor=#0066CC;verticalAlign=top;verticalLabelPosition=bottom;labelPosition=center;align=center;html=1;outlineConnect=0;fillColor=#CCCCCC;strokeColor=#6881B3;gradientColor=none;gradientDirection=north;strokeWidth=2;shape=mxgraph.networks.patch_panel;" parent="1" vertex="1">
                    <mxGeometry x="1000" y="520" width="100" height="35" as="geometry"/>
                </mxCell>
                <mxCell id="xvIyVIgg3RXkF_iqD9qc-8" value="MikroTik Audience&lt;br&gt;RBD25G-5HPacQD2HPnD&lt;br&gt;(AP01-Office)" style="fontColor=#0066CC;verticalAlign=top;verticalLabelPosition=bottom;labelPosition=center;align=center;html=1;fillColor=#CCCCCC;strokeColor=#6881B3;gradientColor=none;gradientDirection=north;strokeWidth=2;shape=mxgraph.networks.wireless_hub;rounded=0;shadow=0;comic=0;" parent="1" vertex="1">
                    <mxGeometry x="490.0000000000002" y="22" width="100" height="85" as="geometry"/>
                </mxCell>
                <mxCell id="T_fwE-VfsfITyoQzDj_X-1" value="VLANs" style="shape=table;startSize=30;container=1;collapsible=0;childLayout=tableLayout;fontStyle=1;fontSize=13;" parent="1" vertex="1">
                    <mxGeometry x="990" y="773" width="290" height="178" as="geometry"/>
                </mxCell>
                <mxCell id="T_fwE-VfsfITyoQzDj_X-2" value="" style="shape=partialRectangle;collapsible=0;dropTarget=0;pointerEvents=0;fillColor=none;top=0;left=0;bottom=0;right=0;points=[[0,0.5],[1,0.5]];portConstraint=eastwest;" parent="T_fwE-VfsfITyoQzDj_X-1" vertex="1">
                    <mxGeometry y="30" width="290" height="25" as="geometry"/>
                </mxCell>
                <mxCell id="T_fwE-VfsfITyoQzDj_X-3" value="VLID" style="shape=partialRectangle;html=1;whiteSpace=wrap;connectable=0;overflow=hidden;fillColor=none;top=0;left=0;bottom=0;right=0;pointerEvents=1;fontStyle=1" parent="T_fwE-VfsfITyoQzDj_X-2" vertex="1">
                    <mxGeometry width="60" height="25" as="geometry">
                        <mxRectangle width="60" height="25" as="alternateBounds"/>
                    </mxGeometry>
                </mxCell>
                <mxCell id="T_fwE-VfsfITyoQzDj_X-4" value="Name" style="shape=partialRectangle;html=1;whiteSpace=wrap;connectable=0;overflow=hidden;fillColor=none;top=0;left=0;bottom=0;right=0;pointerEvents=1;fontStyle=1" parent="T_fwE-VfsfITyoQzDj_X-2" vertex="1">
                    <mxGeometry x="60" width="100" height="25" as="geometry">
                        <mxRectangle width="100" height="25" as="alternateBounds"/>
                    </mxGeometry>
                </mxCell>
                <mxCell id="T_fwE-VfsfITyoQzDj_X-20" value="Network" style="shape=partialRectangle;html=1;whiteSpace=wrap;connectable=0;overflow=hidden;fillColor=none;top=0;left=0;bottom=0;right=0;pointerEvents=1;fontStyle=1" parent="T_fwE-VfsfITyoQzDj_X-2" vertex="1">
                    <mxGeometry x="160" width="130" height="25" as="geometry">
                        <mxRectangle width="130" height="25" as="alternateBounds"/>
                    </mxGeometry>
                </mxCell>
                <mxCell id="T_fwE-VfsfITyoQzDj_X-5" value="" style="shape=partialRectangle;collapsible=0;dropTarget=0;pointerEvents=0;fillColor=none;top=0;left=0;bottom=0;right=0;points=[[0,0.5],[1,0.5]];portConstraint=eastwest;" parent="T_fwE-VfsfITyoQzDj_X-1" vertex="1">
                    <mxGeometry y="55" width="290" height="24" as="geometry"/>
                </mxCell>
                <mxCell id="T_fwE-VfsfITyoQzDj_X-6" value="99" style="shape=partialRectangle;html=1;whiteSpace=wrap;connectable=0;overflow=hidden;fillColor=none;top=0;left=0;bottom=0;right=0;pointerEvents=1;" parent="T_fwE-VfsfITyoQzDj_X-5" vertex="1">
                    <mxGeometry width="60" height="24" as="geometry">
                        <mxRectangle width="60" height="24" as="alternateBounds"/>
                    </mxGeometry>
                </mxCell>
                <mxCell id="T_fwE-VfsfITyoQzDj_X-7" value="vlan-base" style="shape=partialRectangle;html=1;whiteSpace=wrap;connectable=0;overflow=hidden;fillColor=none;top=0;left=0;bottom=0;right=0;pointerEvents=1;align=center;spacingLeft=0;" parent="T_fwE-VfsfITyoQzDj_X-5" vertex="1">
                    <mxGeometry x="60" width="100" height="24" as="geometry">
                        <mxRectangle width="100" height="24" as="alternateBounds"/>
                    </mxGeometry>
                </mxCell>
                <mxCell id="T_fwE-VfsfITyoQzDj_X-21" value="192.168.99.0/24" style="shape=partialRectangle;html=1;whiteSpace=wrap;connectable=0;overflow=hidden;fillColor=none;top=0;left=0;bottom=0;right=0;pointerEvents=1;align=center;spacingLeft=0;" parent="T_fwE-VfsfITyoQzDj_X-5" vertex="1">
                    <mxGeometry x="160" width="130" height="24" as="geometry">
                        <mxRectangle width="130" height="24" as="alternateBounds"/>
                    </mxGeometry>
                </mxCell>
                <mxCell id="T_fwE-VfsfITyoQzDj_X-8" value="" style="shape=partialRectangle;collapsible=0;dropTarget=0;pointerEvents=0;fillColor=none;top=0;left=0;bottom=0;right=0;points=[[0,0.5],[1,0.5]];portConstraint=eastwest;" parent="T_fwE-VfsfITyoQzDj_X-1" vertex="1">
                    <mxGeometry y="79" width="290" height="25" as="geometry"/>
                </mxCell>
                <mxCell id="T_fwE-VfsfITyoQzDj_X-9" value="101" style="shape=partialRectangle;html=1;whiteSpace=wrap;connectable=0;overflow=hidden;fillColor=none;top=0;left=0;bottom=0;right=0;pointerEvents=1;" parent="T_fwE-VfsfITyoQzDj_X-8" vertex="1">
                    <mxGeometry width="60" height="25" as="geometry">
                        <mxRectangle width="60" height="25" as="alternateBounds"/>
                    </mxGeometry>
                </mxCell>
                <mxCell id="T_fwE-VfsfITyoQzDj_X-10" value="vlan-guest" style="shape=partialRectangle;html=1;whiteSpace=wrap;connectable=0;overflow=hidden;fillColor=none;top=0;left=0;bottom=0;right=0;pointerEvents=1;align=center;spacingLeft=0;" parent="T_fwE-VfsfITyoQzDj_X-8" vertex="1">
                    <mxGeometry x="60" width="100" height="25" as="geometry">
                        <mxRectangle width="100" height="25" as="alternateBounds"/>
                    </mxGeometry>
                </mxCell>
                <mxCell id="T_fwE-VfsfITyoQzDj_X-22" value="192.168.101/24" style="shape=partialRectangle;html=1;whiteSpace=wrap;connectable=0;overflow=hidden;fillColor=none;top=0;left=0;bottom=0;right=0;pointerEvents=1;align=center;spacingLeft=0;" parent="T_fwE-VfsfITyoQzDj_X-8" vertex="1">
                    <mxGeometry x="160" width="130" height="25" as="geometry">
                        <mxRectangle width="130" height="25" as="alternateBounds"/>
                    </mxGeometry>
                </mxCell>
                <mxCell id="T_fwE-VfsfITyoQzDj_X-11" value="" style="shape=partialRectangle;collapsible=0;dropTarget=0;pointerEvents=0;fillColor=none;top=0;left=0;bottom=0;right=0;points=[[0,0.5],[1,0.5]];portConstraint=eastwest;" parent="T_fwE-VfsfITyoQzDj_X-1" vertex="1">
                    <mxGeometry y="104" width="290" height="25" as="geometry"/>
                </mxCell>
                <mxCell id="T_fwE-VfsfITyoQzDj_X-12" value="107" style="shape=partialRectangle;html=1;whiteSpace=wrap;connectable=0;overflow=hidden;fillColor=none;top=0;left=0;bottom=0;right=0;pointerEvents=1;" parent="T_fwE-VfsfITyoQzDj_X-11" vertex="1">
                    <mxGeometry width="60" height="25" as="geometry">
                        <mxRectangle width="60" height="25" as="alternateBounds"/>
                    </mxGeometry>
                </mxCell>
                <mxCell id="T_fwE-VfsfITyoQzDj_X-13" value="vlan-iot" style="shape=partialRectangle;html=1;whiteSpace=wrap;connectable=0;overflow=hidden;fillColor=none;top=0;left=0;bottom=0;right=0;pointerEvents=1;align=center;spacingLeft=0;" parent="T_fwE-VfsfITyoQzDj_X-11" vertex="1">
                    <mxGeometry x="60" width="100" height="25" as="geometry">
                        <mxRectangle width="100" height="25" as="alternateBounds"/>
                    </mxGeometry>
                </mxCell>
                <mxCell id="T_fwE-VfsfITyoQzDj_X-23" value="192.168.107.24" style="shape=partialRectangle;html=1;whiteSpace=wrap;connectable=0;overflow=hidden;fillColor=none;top=0;left=0;bottom=0;right=0;pointerEvents=1;align=center;spacingLeft=0;" parent="T_fwE-VfsfITyoQzDj_X-11" vertex="1">
                    <mxGeometry x="160" width="130" height="25" as="geometry">
                        <mxRectangle width="130" height="25" as="alternateBounds"/>
                    </mxGeometry>
                </mxCell>
                <mxCell id="T_fwE-VfsfITyoQzDj_X-14" value="" style="shape=partialRectangle;collapsible=0;dropTarget=0;pointerEvents=0;fillColor=none;top=0;left=0;bottom=0;right=0;points=[[0,0.5],[1,0.5]];portConstraint=eastwest;" parent="T_fwE-VfsfITyoQzDj_X-1" vertex="1">
                    <mxGeometry y="129" width="290" height="24" as="geometry"/>
                </mxCell>
                <mxCell id="T_fwE-VfsfITyoQzDj_X-15" value="119" style="shape=partialRectangle;html=1;whiteSpace=wrap;connectable=0;overflow=hidden;fillColor=none;top=0;left=0;bottom=0;right=0;pointerEvents=1;" parent="T_fwE-VfsfITyoQzDj_X-14" vertex="1">
                    <mxGeometry width="60" height="24" as="geometry">
                        <mxRectangle width="60" height="24" as="alternateBounds"/>
                    </mxGeometry>
                </mxCell>
                <mxCell id="T_fwE-VfsfITyoQzDj_X-16" value="vlan-security" style="shape=partialRectangle;html=1;whiteSpace=wrap;connectable=0;overflow=hidden;fillColor=none;top=0;left=0;bottom=0;right=0;pointerEvents=1;align=center;spacingLeft=0;" parent="T_fwE-VfsfITyoQzDj_X-14" vertex="1">
                    <mxGeometry x="60" width="100" height="24" as="geometry">
                        <mxRectangle width="100" height="24" as="alternateBounds"/>
                    </mxGeometry>
                </mxCell>
                <mxCell id="T_fwE-VfsfITyoQzDj_X-24" value="192.168.119.0/24" style="shape=partialRectangle;html=1;whiteSpace=wrap;connectable=0;overflow=hidden;fillColor=none;top=0;left=0;bottom=0;right=0;pointerEvents=1;align=center;spacingLeft=0;" parent="T_fwE-VfsfITyoQzDj_X-14" vertex="1">
                    <mxGeometry x="160" width="130" height="24" as="geometry">
                        <mxRectangle width="130" height="24" as="alternateBounds"/>
                    </mxGeometry>
                </mxCell>
                <mxCell id="T_fwE-VfsfITyoQzDj_X-17" value="" style="shape=partialRectangle;collapsible=0;dropTarget=0;pointerEvents=0;fillColor=none;top=0;left=0;bottom=0;right=0;points=[[0,0.5],[1,0.5]];portConstraint=eastwest;" parent="T_fwE-VfsfITyoQzDj_X-1" vertex="1">
                    <mxGeometry y="153" width="290" height="25" as="geometry"/>
                </mxCell>
                <mxCell id="T_fwE-VfsfITyoQzDj_X-18" value="???" style="shape=partialRectangle;html=1;whiteSpace=wrap;connectable=0;overflow=hidden;fillColor=none;top=0;left=0;bottom=0;right=0;pointerEvents=1;" parent="T_fwE-VfsfITyoQzDj_X-17" vertex="1">
                    <mxGeometry width="60" height="25" as="geometry">
                        <mxRectangle width="60" height="25" as="alternateBounds"/>
                    </mxGeometry>
                </mxCell>
                <mxCell id="T_fwE-VfsfITyoQzDj_X-19" value="vlan-voip" style="shape=partialRectangle;html=1;whiteSpace=wrap;connectable=0;overflow=hidden;fillColor=none;top=0;left=0;bottom=0;right=0;pointerEvents=1;align=center;spacingLeft=0;" parent="T_fwE-VfsfITyoQzDj_X-17" vertex="1">
                    <mxGeometry x="60" width="100" height="25" as="geometry">
                        <mxRectangle width="100" height="25" as="alternateBounds"/>
                    </mxGeometry>
                </mxCell>
                <mxCell id="T_fwE-VfsfITyoQzDj_X-25" value="???" style="shape=partialRectangle;html=1;whiteSpace=wrap;connectable=0;overflow=hidden;fillColor=none;top=0;left=0;bottom=0;right=0;pointerEvents=1;align=center;spacingLeft=0;" parent="T_fwE-VfsfITyoQzDj_X-17" vertex="1">
                    <mxGeometry x="160" width="130" height="25" as="geometry">
                        <mxRectangle width="130" height="25" as="alternateBounds"/>
                    </mxGeometry>
                </mxCell>
                <mxCell id="KJd_LxnSjkqWvds_a51L-363" style="edgeStyle=orthogonalEdgeStyle;rounded=0;orthogonalLoop=1;jettySize=auto;html=1;fontSize=14;endArrow=none;endFill=0;" parent="1" source="KJd_LxnSjkqWvds_a51L-1" target="xvIyVIgg3RXkF_iqD9qc-1" edge="1">
                    <mxGeometry relative="1" as="geometry">
                        <Array as="points">
                            <mxPoint x="780" y="410"/>
                        </Array>
                    </mxGeometry>
                </mxCell>
                <mxCell id="KJd_LxnSjkqWvds_a51L-364" value="eth9" style="edgeLabel;html=1;align=center;verticalAlign=middle;resizable=0;points=[];fontSize=12;" parent="KJd_LxnSjkqWvds_a51L-363" vertex="1" connectable="0">
                    <mxGeometry x="-0.8588" y="1" relative="1" as="geometry">
                        <mxPoint x="19" y="-6" as="offset"/>
                    </mxGeometry>
                </mxCell>
                <mxCell id="KJd_LxnSjkqWvds_a51L-365" style="edgeStyle=orthogonalEdgeStyle;rounded=0;orthogonalLoop=1;jettySize=auto;html=1;fontSize=14;endArrow=none;endFill=0;" parent="1" source="KJd_LxnSjkqWvds_a51L-1" edge="1">
                    <mxGeometry relative="1" as="geometry">
                        <mxPoint x="590" y="89" as="targetPoint"/>
                        <Array as="points">
                            <mxPoint x="700" y="330"/>
                            <mxPoint x="630" y="330"/>
                            <mxPoint x="630" y="90"/>
                        </Array>
                    </mxGeometry>
                </mxCell>
                <mxCell id="KJd_LxnSjkqWvds_a51L-367" value="eth3" style="edgeLabel;html=1;align=center;verticalAlign=middle;resizable=0;points=[];fontSize=12;" parent="KJd_LxnSjkqWvds_a51L-365" vertex="1" connectable="0">
                    <mxGeometry x="-0.8414" y="-3" relative="1" as="geometry">
                        <mxPoint x="-17" y="-7" as="offset"/>
                    </mxGeometry>
                </mxCell>
                <mxCell id="KJd_LxnSjkqWvds_a51L-366" style="edgeStyle=orthogonalEdgeStyle;rounded=0;orthogonalLoop=1;jettySize=auto;html=1;fontSize=14;endArrow=none;endFill=0;strokeColor=default;" parent="1" source="KJd_LxnSjkqWvds_a51L-1" edge="1">
                    <mxGeometry relative="1" as="geometry">
                        <mxPoint x="584" y="275" as="targetPoint"/>
                        <Array as="points">
                            <mxPoint x="710" y="400"/>
                            <mxPoint x="610" y="400"/>
                            <mxPoint x="610" y="275"/>
                            <mxPoint x="584" y="275"/>
                        </Array>
                    </mxGeometry>
                </mxCell>
                <mxCell id="KJd_LxnSjkqWvds_a51L-368" value="eth4" style="edgeLabel;html=1;align=center;verticalAlign=middle;resizable=0;points=[];fontSize=12;" parent="KJd_LxnSjkqWvds_a51L-366" vertex="1" connectable="0">
                    <mxGeometry x="-0.4183" y="-3" relative="1" as="geometry">
                        <mxPoint x="-17" y="-9" as="offset"/>
                    </mxGeometry>
                </mxCell>
                <mxCell id="KJd_LxnSjkqWvds_a51L-1" value="MikroTik&lt;br&gt;CRS328-24P-4S+&lt;br&gt;(SW02-Office-NR5)" style="fontColor=#0066CC;verticalAlign=bottom;verticalLabelPosition=top;labelPosition=center;align=center;html=1;outlineConnect=0;fillColor=#CCCCCC;strokeColor=#6881B3;gradientColor=none;gradientDirection=north;strokeWidth=2;shape=mxgraph.networks.switch;" parent="1" vertex="1">
                    <mxGeometry x="690" y="260" width="100" height="30" as="geometry"/>
                </mxCell>
                <mxCell id="KJd_LxnSjkqWvds_a51L-2" value="MikroTik RB5009UG+S+&#10;(RT01-Office-NR2)" style="shape=table;startSize=30;container=1;collapsible=0;childLayout=tableLayout;fontStyle=1;spacingTop=0;spacingBottom=0;" parent="1" vertex="1">
                    <mxGeometry x="1295" y="6.5" width="325" height="290" as="geometry"/>
                </mxCell>
                <mxCell id="KJd_LxnSjkqWvds_a51L-3" value="" style="shape=partialRectangle;collapsible=0;dropTarget=0;pointerEvents=0;fillColor=none;top=0;left=0;bottom=0;right=0;points=[[0,0.5],[1,0.5]];portConstraint=eastwest;" parent="KJd_LxnSjkqWvds_a51L-2" vertex="1">
                    <mxGeometry y="30" width="325" height="26" as="geometry"/>
                </mxCell>
                <mxCell id="KJd_LxnSjkqWvds_a51L-4" value="Port" style="shape=partialRectangle;html=1;whiteSpace=wrap;connectable=0;overflow=hidden;fillColor=none;top=0;left=0;bottom=0;right=0;pointerEvents=1;fontStyle=1;fontSize=11;" parent="KJd_LxnSjkqWvds_a51L-3" vertex="1">
                    <mxGeometry width="60" height="26" as="geometry">
                        <mxRectangle width="60" height="26" as="alternateBounds"/>
                    </mxGeometry>
                </mxCell>
                <mxCell id="KJd_LxnSjkqWvds_a51L-5" value="VLID" style="shape=partialRectangle;html=1;whiteSpace=wrap;connectable=0;overflow=hidden;fillColor=none;top=0;left=0;bottom=0;right=0;pointerEvents=1;fontStyle=1;fontSize=11;" parent="KJd_LxnSjkqWvds_a51L-3" vertex="1">
                    <mxGeometry x="60" width="110" height="26" as="geometry">
                        <mxRectangle width="110" height="26" as="alternateBounds"/>
                    </mxGeometry>
                </mxCell>
                <mxCell id="KJd_LxnSjkqWvds_a51L-6" value="Device" style="shape=partialRectangle;html=1;whiteSpace=wrap;connectable=0;overflow=hidden;fillColor=none;top=0;left=0;bottom=0;right=0;pointerEvents=1;align=center;spacingLeft=5;fontStyle=1;fontSize=11;" parent="KJd_LxnSjkqWvds_a51L-3" vertex="1">
                    <mxGeometry x="170" width="155" height="26" as="geometry">
                        <mxRectangle width="155" height="26" as="alternateBounds"/>
                    </mxGeometry>
                </mxCell>
                <mxCell id="KJd_LxnSjkqWvds_a51L-7" value="" style="shape=partialRectangle;collapsible=0;dropTarget=0;pointerEvents=0;fillColor=none;top=0;left=0;bottom=0;right=0;points=[[0,0.5],[1,0.5]];portConstraint=eastwest;" parent="KJd_LxnSjkqWvds_a51L-2" vertex="1">
                    <mxGeometry y="56" width="325" height="26" as="geometry"/>
                </mxCell>
                <mxCell id="KJd_LxnSjkqWvds_a51L-8" value="sfp+1" style="shape=partialRectangle;html=1;whiteSpace=wrap;connectable=0;overflow=hidden;fillColor=none;top=0;left=0;bottom=0;right=0;pointerEvents=1;" parent="KJd_LxnSjkqWvds_a51L-7" vertex="1">
                    <mxGeometry width="60" height="26" as="geometry">
                        <mxRectangle width="60" height="26" as="alternateBounds"/>
                    </mxGeometry>
                </mxCell>
                <mxCell id="KJd_LxnSjkqWvds_a51L-9" value="[99,101,107,119]" style="shape=partialRectangle;html=1;whiteSpace=wrap;connectable=0;overflow=hidden;fillColor=none;top=0;left=0;bottom=0;right=0;pointerEvents=1;align=center;spacingLeft=0;" parent="KJd_LxnSjkqWvds_a51L-7" vertex="1">
                    <mxGeometry x="60" width="110" height="26" as="geometry">
                        <mxRectangle width="110" height="26" as="alternateBounds"/>
                    </mxGeometry>
                </mxCell>
                <mxCell id="KJd_LxnSjkqWvds_a51L-10" value="" style="shape=partialRectangle;html=1;whiteSpace=wrap;connectable=0;overflow=hidden;fillColor=none;top=0;left=0;bottom=0;right=0;pointerEvents=1;align=left;spacingLeft=5;" parent="KJd_LxnSjkqWvds_a51L-7" vertex="1">
                    <mxGeometry x="170" width="155" height="26" as="geometry">
                        <mxRectangle width="155" height="26" as="alternateBounds"/>
                    </mxGeometry>
                </mxCell>
                <mxCell id="KJd_LxnSjkqWvds_a51L-11" value="" style="shape=partialRectangle;collapsible=0;dropTarget=0;pointerEvents=0;fillColor=none;top=0;left=0;bottom=0;right=0;points=[[0,0.5],[1,0.5]];portConstraint=eastwest;" parent="KJd_LxnSjkqWvds_a51L-2" vertex="1">
                    <mxGeometry y="82" width="325" height="26" as="geometry"/>
                </mxCell>
                <mxCell id="KJd_LxnSjkqWvds_a51L-12" value="eth1" style="shape=partialRectangle;html=1;whiteSpace=wrap;connectable=0;overflow=hidden;fillColor=none;top=0;left=0;bottom=0;right=0;pointerEvents=1;" parent="KJd_LxnSjkqWvds_a51L-11" vertex="1">
                    <mxGeometry width="60" height="26" as="geometry">
                        <mxRectangle width="60" height="26" as="alternateBounds"/>
                    </mxGeometry>
                </mxCell>
                <mxCell id="KJd_LxnSjkqWvds_a51L-13" value="WAN" style="shape=partialRectangle;html=1;whiteSpace=wrap;connectable=0;overflow=hidden;fillColor=none;top=0;left=0;bottom=0;right=0;pointerEvents=1;align=center;spacingLeft=0;" parent="KJd_LxnSjkqWvds_a51L-11" vertex="1">
                    <mxGeometry x="60" width="110" height="26" as="geometry">
                        <mxRectangle width="110" height="26" as="alternateBounds"/>
                    </mxGeometry>
                </mxCell>
                <mxCell id="KJd_LxnSjkqWvds_a51L-14" value="&lt;div&gt;&lt;span&gt;Pace 5268AC&lt;/span&gt;&lt;br&gt;&lt;/div&gt;" style="shape=partialRectangle;html=1;whiteSpace=wrap;connectable=0;overflow=hidden;fillColor=none;top=0;left=0;bottom=0;right=0;pointerEvents=1;align=left;spacingLeft=5;" parent="KJd_LxnSjkqWvds_a51L-11" vertex="1">
                    <mxGeometry x="170" width="155" height="26" as="geometry">
                        <mxRectangle width="155" height="26" as="alternateBounds"/>
                    </mxGeometry>
                </mxCell>
                <mxCell id="KJd_LxnSjkqWvds_a51L-15" value="" style="shape=partialRectangle;collapsible=0;dropTarget=0;pointerEvents=0;fillColor=none;top=0;left=0;bottom=0;right=0;points=[[0,0.5],[1,0.5]];portConstraint=eastwest;" parent="KJd_LxnSjkqWvds_a51L-2" vertex="1">
                    <mxGeometry y="108" width="325" height="26" as="geometry"/>
                </mxCell>
                <mxCell id="KJd_LxnSjkqWvds_a51L-16" value="eth2" style="shape=partialRectangle;html=1;whiteSpace=wrap;connectable=0;overflow=hidden;fillColor=none;top=0;left=0;bottom=0;right=0;pointerEvents=1;" parent="KJd_LxnSjkqWvds_a51L-15" vertex="1">
                    <mxGeometry width="60" height="26" as="geometry">
                        <mxRectangle width="60" height="26" as="alternateBounds"/>
                    </mxGeometry>
                </mxCell>
                <mxCell id="KJd_LxnSjkqWvds_a51L-17" value="[99,101,107,119]" style="shape=partialRectangle;html=1;whiteSpace=wrap;connectable=0;overflow=hidden;fillColor=none;top=0;left=0;bottom=0;right=0;pointerEvents=1;align=center;spacingLeft=0;" parent="KJd_LxnSjkqWvds_a51L-15" vertex="1">
                    <mxGeometry x="60" width="110" height="26" as="geometry">
                        <mxRectangle width="110" height="26" as="alternateBounds"/>
                    </mxGeometry>
                </mxCell>
                <mxCell id="KJd_LxnSjkqWvds_a51L-18" value="&lt;div&gt;&lt;b&gt;MT&amp;nbsp;&lt;span&gt;CRS112-8G-4S&lt;/span&gt;&lt;/b&gt;&lt;/div&gt;" style="shape=partialRectangle;html=1;whiteSpace=wrap;connectable=0;overflow=hidden;fillColor=none;top=0;left=0;bottom=0;right=0;pointerEvents=1;align=left;spacingLeft=5;" parent="KJd_LxnSjkqWvds_a51L-15" vertex="1">
                    <mxGeometry x="170" width="155" height="26" as="geometry">
                        <mxRectangle width="155" height="26" as="alternateBounds"/>
                    </mxGeometry>
                </mxCell>
                <mxCell id="KJd_LxnSjkqWvds_a51L-19" value="" style="shape=partialRectangle;collapsible=0;dropTarget=0;pointerEvents=0;fillColor=none;top=0;left=0;bottom=0;right=0;points=[[0,0.5],[1,0.5]];portConstraint=eastwest;" parent="KJd_LxnSjkqWvds_a51L-2" vertex="1">
                    <mxGeometry y="134" width="325" height="26" as="geometry"/>
                </mxCell>
                <mxCell id="KJd_LxnSjkqWvds_a51L-20" value="eth3" style="shape=partialRectangle;html=1;whiteSpace=wrap;connectable=0;overflow=hidden;fillColor=none;top=0;left=0;bottom=0;right=0;pointerEvents=1;" parent="KJd_LxnSjkqWvds_a51L-19" vertex="1">
                    <mxGeometry width="60" height="26" as="geometry">
                        <mxRectangle width="60" height="26" as="alternateBounds"/>
                    </mxGeometry>
                </mxCell>
                <mxCell id="KJd_LxnSjkqWvds_a51L-21" value="[99,101,107,119]" style="shape=partialRectangle;html=1;whiteSpace=wrap;connectable=0;overflow=hidden;fillColor=none;top=0;left=0;bottom=0;right=0;pointerEvents=1;align=center;spacingLeft=0;" parent="KJd_LxnSjkqWvds_a51L-19" vertex="1">
                    <mxGeometry x="60" width="110" height="26" as="geometry">
                        <mxRectangle width="110" height="26" as="alternateBounds"/>
                    </mxGeometry>
                </mxCell>
                <mxCell id="KJd_LxnSjkqWvds_a51L-22" value="&lt;div&gt;&lt;b&gt;MT&amp;nbsp;&lt;span&gt;CRS328-24P-4S+&lt;/span&gt;&lt;/b&gt;&lt;/div&gt;" style="shape=partialRectangle;html=1;whiteSpace=wrap;connectable=0;overflow=hidden;fillColor=none;top=0;left=0;bottom=0;right=0;pointerEvents=1;align=left;spacingLeft=5;" parent="KJd_LxnSjkqWvds_a51L-19" vertex="1">
                    <mxGeometry x="170" width="155" height="26" as="geometry">
                        <mxRectangle width="155" height="26" as="alternateBounds"/>
                    </mxGeometry>
                </mxCell>
                <mxCell id="KJd_LxnSjkqWvds_a51L-23" value="" style="shape=partialRectangle;collapsible=0;dropTarget=0;pointerEvents=0;fillColor=none;top=0;left=0;bottom=0;right=0;points=[[0,0.5],[1,0.5]];portConstraint=eastwest;" parent="KJd_LxnSjkqWvds_a51L-2" vertex="1">
                    <mxGeometry y="160" width="325" height="26" as="geometry"/>
                </mxCell>
                <mxCell id="KJd_LxnSjkqWvds_a51L-24" value="eth4" style="shape=partialRectangle;html=1;whiteSpace=wrap;connectable=0;overflow=hidden;fillColor=none;top=0;left=0;bottom=0;right=0;pointerEvents=1;" parent="KJd_LxnSjkqWvds_a51L-23" vertex="1">
                    <mxGeometry width="60" height="26" as="geometry">
                        <mxRectangle width="60" height="26" as="alternateBounds"/>
                    </mxGeometry>
                </mxCell>
                <mxCell id="KJd_LxnSjkqWvds_a51L-25" value="[99,101,107,119]" style="shape=partialRectangle;html=1;whiteSpace=wrap;connectable=0;overflow=hidden;fillColor=none;top=0;left=0;bottom=0;right=0;pointerEvents=1;align=center;spacingLeft=0;" parent="KJd_LxnSjkqWvds_a51L-23" vertex="1">
                    <mxGeometry x="60" width="110" height="26" as="geometry">
                        <mxRectangle width="110" height="26" as="alternateBounds"/>
                    </mxGeometry>
                </mxCell>
                <mxCell id="KJd_LxnSjkqWvds_a51L-26" value="" style="shape=partialRectangle;html=1;whiteSpace=wrap;connectable=0;overflow=hidden;fillColor=none;top=0;left=0;bottom=0;right=0;pointerEvents=1;align=left;spacingLeft=5;" parent="KJd_LxnSjkqWvds_a51L-23" vertex="1">
                    <mxGeometry x="170" width="155" height="26" as="geometry">
                        <mxRectangle width="155" height="26" as="alternateBounds"/>
                    </mxGeometry>
                </mxCell>
                <mxCell id="KJd_LxnSjkqWvds_a51L-27" value="" style="shape=partialRectangle;collapsible=0;dropTarget=0;pointerEvents=0;fillColor=none;top=0;left=0;bottom=0;right=0;points=[[0,0.5],[1,0.5]];portConstraint=eastwest;" parent="KJd_LxnSjkqWvds_a51L-2" vertex="1">
                    <mxGeometry y="186" width="325" height="26" as="geometry"/>
                </mxCell>
                <mxCell id="KJd_LxnSjkqWvds_a51L-28" value="eth5" style="shape=partialRectangle;html=1;whiteSpace=wrap;connectable=0;overflow=hidden;fillColor=none;top=0;left=0;bottom=0;right=0;pointerEvents=1;" parent="KJd_LxnSjkqWvds_a51L-27" vertex="1">
                    <mxGeometry width="60" height="26" as="geometry">
                        <mxRectangle width="60" height="26" as="alternateBounds"/>
                    </mxGeometry>
                </mxCell>
                <mxCell id="KJd_LxnSjkqWvds_a51L-29" value="" style="shape=partialRectangle;html=1;whiteSpace=wrap;connectable=0;overflow=hidden;fillColor=none;top=0;left=0;bottom=0;right=0;pointerEvents=1;align=center;spacingLeft=0;" parent="KJd_LxnSjkqWvds_a51L-27" vertex="1">
                    <mxGeometry x="60" width="110" height="26" as="geometry">
                        <mxRectangle width="110" height="26" as="alternateBounds"/>
                    </mxGeometry>
                </mxCell>
                <mxCell id="KJd_LxnSjkqWvds_a51L-30" value="" style="shape=partialRectangle;html=1;whiteSpace=wrap;connectable=0;overflow=hidden;fillColor=none;top=0;left=0;bottom=0;right=0;pointerEvents=1;align=left;spacingLeft=5;" parent="KJd_LxnSjkqWvds_a51L-27" vertex="1">
                    <mxGeometry x="170" width="155" height="26" as="geometry">
                        <mxRectangle width="155" height="26" as="alternateBounds"/>
                    </mxGeometry>
                </mxCell>
                <mxCell id="KJd_LxnSjkqWvds_a51L-31" value="" style="shape=partialRectangle;collapsible=0;dropTarget=0;pointerEvents=0;fillColor=none;top=0;left=0;bottom=0;right=0;points=[[0,0.5],[1,0.5]];portConstraint=eastwest;" parent="KJd_LxnSjkqWvds_a51L-2" vertex="1">
                    <mxGeometry y="212" width="325" height="26" as="geometry"/>
                </mxCell>
                <mxCell id="KJd_LxnSjkqWvds_a51L-32" value="eth6" style="shape=partialRectangle;html=1;whiteSpace=wrap;connectable=0;overflow=hidden;fillColor=none;top=0;left=0;bottom=0;right=0;pointerEvents=1;" parent="KJd_LxnSjkqWvds_a51L-31" vertex="1">
                    <mxGeometry width="60" height="26" as="geometry">
                        <mxRectangle width="60" height="26" as="alternateBounds"/>
                    </mxGeometry>
                </mxCell>
                <mxCell id="KJd_LxnSjkqWvds_a51L-33" value="" style="shape=partialRectangle;html=1;whiteSpace=wrap;connectable=0;overflow=hidden;fillColor=none;top=0;left=0;bottom=0;right=0;pointerEvents=1;align=center;spacingLeft=0;" parent="KJd_LxnSjkqWvds_a51L-31" vertex="1">
                    <mxGeometry x="60" width="110" height="26" as="geometry">
                        <mxRectangle width="110" height="26" as="alternateBounds"/>
                    </mxGeometry>
                </mxCell>
                <mxCell id="KJd_LxnSjkqWvds_a51L-34" value="" style="shape=partialRectangle;html=1;whiteSpace=wrap;connectable=0;overflow=hidden;fillColor=none;top=0;left=0;bottom=0;right=0;pointerEvents=1;align=left;spacingLeft=5;" parent="KJd_LxnSjkqWvds_a51L-31" vertex="1">
                    <mxGeometry x="170" width="155" height="26" as="geometry">
                        <mxRectangle width="155" height="26" as="alternateBounds"/>
                    </mxGeometry>
                </mxCell>
                <mxCell id="KJd_LxnSjkqWvds_a51L-35" value="" style="shape=partialRectangle;collapsible=0;dropTarget=0;pointerEvents=0;fillColor=none;top=0;left=0;bottom=0;right=0;points=[[0,0.5],[1,0.5]];portConstraint=eastwest;" parent="KJd_LxnSjkqWvds_a51L-2" vertex="1">
                    <mxGeometry y="238" width="325" height="26" as="geometry"/>
                </mxCell>
                <mxCell id="KJd_LxnSjkqWvds_a51L-36" value="eth7" style="shape=partialRectangle;html=1;whiteSpace=wrap;connectable=0;overflow=hidden;fillColor=none;top=0;left=0;bottom=0;right=0;pointerEvents=1;" parent="KJd_LxnSjkqWvds_a51L-35" vertex="1">
                    <mxGeometry width="60" height="26" as="geometry">
                        <mxRectangle width="60" height="26" as="alternateBounds"/>
                    </mxGeometry>
                </mxCell>
                <mxCell id="KJd_LxnSjkqWvds_a51L-37" value="" style="shape=partialRectangle;html=1;whiteSpace=wrap;connectable=0;overflow=hidden;fillColor=none;top=0;left=0;bottom=0;right=0;pointerEvents=1;align=center;spacingLeft=0;" parent="KJd_LxnSjkqWvds_a51L-35" vertex="1">
                    <mxGeometry x="60" width="110" height="26" as="geometry">
                        <mxRectangle width="110" height="26" as="alternateBounds"/>
                    </mxGeometry>
                </mxCell>
                <mxCell id="KJd_LxnSjkqWvds_a51L-38" value="" style="shape=partialRectangle;html=1;whiteSpace=wrap;connectable=0;overflow=hidden;fillColor=none;top=0;left=0;bottom=0;right=0;pointerEvents=1;align=left;spacingLeft=5;" parent="KJd_LxnSjkqWvds_a51L-35" vertex="1">
                    <mxGeometry x="170" width="155" height="26" as="geometry">
                        <mxRectangle width="155" height="26" as="alternateBounds"/>
                    </mxGeometry>
                </mxCell>
                <mxCell id="KJd_LxnSjkqWvds_a51L-39" value="" style="shape=partialRectangle;collapsible=0;dropTarget=0;pointerEvents=0;fillColor=none;top=0;left=0;bottom=0;right=0;points=[[0,0.5],[1,0.5]];portConstraint=eastwest;" parent="KJd_LxnSjkqWvds_a51L-2" vertex="1">
                    <mxGeometry y="264" width="325" height="26" as="geometry"/>
                </mxCell>
                <mxCell id="KJd_LxnSjkqWvds_a51L-40" value="eth8" style="shape=partialRectangle;html=1;whiteSpace=wrap;connectable=0;overflow=hidden;fillColor=none;top=0;left=0;bottom=0;right=0;pointerEvents=1;" parent="KJd_LxnSjkqWvds_a51L-39" vertex="1">
                    <mxGeometry width="60" height="26" as="geometry">
                        <mxRectangle width="60" height="26" as="alternateBounds"/>
                    </mxGeometry>
                </mxCell>
                <mxCell id="KJd_LxnSjkqWvds_a51L-41" value="99" style="shape=partialRectangle;html=1;whiteSpace=wrap;connectable=0;overflow=hidden;fillColor=none;top=0;left=0;bottom=0;right=0;pointerEvents=1;align=center;spacingLeft=0;" parent="KJd_LxnSjkqWvds_a51L-39" vertex="1">
                    <mxGeometry x="60" width="110" height="26" as="geometry">
                        <mxRectangle width="110" height="26" as="alternateBounds"/>
                    </mxGeometry>
                </mxCell>
                <mxCell id="KJd_LxnSjkqWvds_a51L-42" value="Office PC" style="shape=partialRectangle;html=1;whiteSpace=wrap;connectable=0;overflow=hidden;fillColor=none;top=0;left=0;bottom=0;right=0;pointerEvents=1;align=left;spacingLeft=5;" parent="KJd_LxnSjkqWvds_a51L-39" vertex="1">
                    <mxGeometry x="170" width="155" height="26" as="geometry">
                        <mxRectangle width="155" height="26" as="alternateBounds"/>
                    </mxGeometry>
                </mxCell>
                <mxCell id="KJd_LxnSjkqWvds_a51L-126" value="MikroTik CRS112-8G-4S&#10;(SW01-Office-NR4)" style="shape=table;startSize=30;container=1;collapsible=0;childLayout=tableLayout;fontStyle=1;spacingTop=0;spacingBottom=0;" parent="1" vertex="1">
                    <mxGeometry x="1295" y="308" width="325" height="368" as="geometry"/>
                </mxCell>
                <mxCell id="KJd_LxnSjkqWvds_a51L-127" value="" style="shape=partialRectangle;collapsible=0;dropTarget=0;pointerEvents=0;fillColor=none;top=0;left=0;bottom=0;right=0;points=[[0,0.5],[1,0.5]];portConstraint=eastwest;" parent="KJd_LxnSjkqWvds_a51L-126" vertex="1">
                    <mxGeometry y="30" width="325" height="26" as="geometry"/>
                </mxCell>
                <mxCell id="KJd_LxnSjkqWvds_a51L-128" value="Port" style="shape=partialRectangle;html=1;whiteSpace=wrap;connectable=0;overflow=hidden;fillColor=none;top=0;left=0;bottom=0;right=0;pointerEvents=1;fontStyle=1;fontSize=11;" parent="KJd_LxnSjkqWvds_a51L-127" vertex="1">
                    <mxGeometry width="59" height="26" as="geometry">
                        <mxRectangle width="59" height="26" as="alternateBounds"/>
                    </mxGeometry>
                </mxCell>
                <mxCell id="KJd_LxnSjkqWvds_a51L-129" value="VLID" style="shape=partialRectangle;html=1;whiteSpace=wrap;connectable=0;overflow=hidden;fillColor=none;top=0;left=0;bottom=0;right=0;pointerEvents=1;fontStyle=1;fontSize=11;" parent="KJd_LxnSjkqWvds_a51L-127" vertex="1">
                    <mxGeometry x="59" width="96" height="26" as="geometry">
                        <mxRectangle width="96" height="26" as="alternateBounds"/>
                    </mxGeometry>
                </mxCell>
                <mxCell id="KJd_LxnSjkqWvds_a51L-130" value="Device" style="shape=partialRectangle;html=1;whiteSpace=wrap;connectable=0;overflow=hidden;fillColor=none;top=0;left=0;bottom=0;right=0;pointerEvents=1;align=center;spacingLeft=5;fontStyle=1;fontSize=11;" parent="KJd_LxnSjkqWvds_a51L-127" vertex="1">
                    <mxGeometry x="155" width="170" height="26" as="geometry">
                        <mxRectangle width="170" height="26" as="alternateBounds"/>
                    </mxGeometry>
                </mxCell>
                <mxCell id="KJd_LxnSjkqWvds_a51L-135" value="" style="shape=partialRectangle;collapsible=0;dropTarget=0;pointerEvents=0;fillColor=none;top=0;left=0;bottom=0;right=0;points=[[0,0.5],[1,0.5]];portConstraint=eastwest;" parent="KJd_LxnSjkqWvds_a51L-126" vertex="1">
                    <mxGeometry y="56" width="325" height="26" as="geometry"/>
                </mxCell>
                <mxCell id="KJd_LxnSjkqWvds_a51L-136" value="eth1" style="shape=partialRectangle;html=1;whiteSpace=wrap;connectable=0;overflow=hidden;fillColor=none;top=0;left=0;bottom=0;right=0;pointerEvents=1;" parent="KJd_LxnSjkqWvds_a51L-135" vertex="1">
                    <mxGeometry width="59" height="26" as="geometry">
                        <mxRectangle width="59" height="26" as="alternateBounds"/>
                    </mxGeometry>
                </mxCell>
                <mxCell id="KJd_LxnSjkqWvds_a51L-137" value="[99,101,107,119]" style="shape=partialRectangle;html=1;whiteSpace=wrap;connectable=0;overflow=hidden;fillColor=none;top=0;left=0;bottom=0;right=0;pointerEvents=1;align=center;spacingLeft=0;" parent="KJd_LxnSjkqWvds_a51L-135" vertex="1">
                    <mxGeometry x="59" width="96" height="26" as="geometry">
                        <mxRectangle width="96" height="26" as="alternateBounds"/>
                    </mxGeometry>
                </mxCell>
                <mxCell id="KJd_LxnSjkqWvds_a51L-138" value="&lt;div&gt;&lt;b&gt;MT RB5009UG+S+&lt;/b&gt;&lt;br&gt;&lt;/div&gt;" style="shape=partialRectangle;html=1;whiteSpace=wrap;connectable=0;overflow=hidden;fillColor=none;top=0;left=0;bottom=0;right=0;pointerEvents=1;align=left;spacingLeft=5;" parent="KJd_LxnSjkqWvds_a51L-135" vertex="1">
                    <mxGeometry x="155" width="170" height="26" as="geometry">
                        <mxRectangle width="170" height="26" as="alternateBounds"/>
                    </mxGeometry>
                </mxCell>
                <mxCell id="KJd_LxnSjkqWvds_a51L-139" value="" style="shape=partialRectangle;collapsible=0;dropTarget=0;pointerEvents=0;fillColor=none;top=0;left=0;bottom=0;right=0;points=[[0,0.5],[1,0.5]];portConstraint=eastwest;" parent="KJd_LxnSjkqWvds_a51L-126" vertex="1">
                    <mxGeometry y="82" width="325" height="26" as="geometry"/>
                </mxCell>
                <mxCell id="KJd_LxnSjkqWvds_a51L-140" value="eth2" style="shape=partialRectangle;html=1;whiteSpace=wrap;connectable=0;overflow=hidden;fillColor=none;top=0;left=0;bottom=0;right=0;pointerEvents=1;" parent="KJd_LxnSjkqWvds_a51L-139" vertex="1">
                    <mxGeometry width="59" height="26" as="geometry">
                        <mxRectangle width="59" height="26" as="alternateBounds"/>
                    </mxGeometry>
                </mxCell>
                <mxCell id="KJd_LxnSjkqWvds_a51L-141" value="[99,101,107,119]" style="shape=partialRectangle;html=1;whiteSpace=wrap;connectable=0;overflow=hidden;fillColor=none;top=0;left=0;bottom=0;right=0;pointerEvents=1;align=center;spacingLeft=0;" parent="KJd_LxnSjkqWvds_a51L-139" vertex="1">
                    <mxGeometry x="59" width="96" height="26" as="geometry">
                        <mxRectangle width="96" height="26" as="alternateBounds"/>
                    </mxGeometry>
                </mxCell>
                <mxCell id="KJd_LxnSjkqWvds_a51L-142" value="&lt;div&gt;&lt;b&gt;TP Link&amp;nbsp;&lt;span&gt;TL-SG108E&lt;/span&gt;&lt;/b&gt;&lt;/div&gt;" style="shape=partialRectangle;html=1;whiteSpace=wrap;connectable=0;overflow=hidden;fillColor=none;top=0;left=0;bottom=0;right=0;pointerEvents=1;align=left;spacingLeft=5;" parent="KJd_LxnSjkqWvds_a51L-139" vertex="1">
                    <mxGeometry x="155" width="170" height="26" as="geometry">
                        <mxRectangle width="170" height="26" as="alternateBounds"/>
                    </mxGeometry>
                </mxCell>
                <mxCell id="KJd_LxnSjkqWvds_a51L-143" value="" style="shape=partialRectangle;collapsible=0;dropTarget=0;pointerEvents=0;fillColor=none;top=0;left=0;bottom=0;right=0;points=[[0,0.5],[1,0.5]];portConstraint=eastwest;" parent="KJd_LxnSjkqWvds_a51L-126" vertex="1">
                    <mxGeometry y="108" width="325" height="26" as="geometry"/>
                </mxCell>
                <mxCell id="KJd_LxnSjkqWvds_a51L-144" value="eth3" style="shape=partialRectangle;html=1;whiteSpace=wrap;connectable=0;overflow=hidden;fillColor=none;top=0;left=0;bottom=0;right=0;pointerEvents=1;" parent="KJd_LxnSjkqWvds_a51L-143" vertex="1">
                    <mxGeometry width="59" height="26" as="geometry">
                        <mxRectangle width="59" height="26" as="alternateBounds"/>
                    </mxGeometry>
                </mxCell>
                <mxCell id="KJd_LxnSjkqWvds_a51L-145" value="107" style="shape=partialRectangle;html=1;whiteSpace=wrap;connectable=0;overflow=hidden;fillColor=none;top=0;left=0;bottom=0;right=0;pointerEvents=1;align=center;spacingLeft=0;" parent="KJd_LxnSjkqWvds_a51L-143" vertex="1">
                    <mxGeometry x="59" width="96" height="26" as="geometry">
                        <mxRectangle width="96" height="26" as="alternateBounds"/>
                    </mxGeometry>
                </mxCell>
                <mxCell id="KJd_LxnSjkqWvds_a51L-146" value="" style="shape=partialRectangle;html=1;whiteSpace=wrap;connectable=0;overflow=hidden;fillColor=none;top=0;left=0;bottom=0;right=0;pointerEvents=1;align=left;spacingLeft=5;" parent="KJd_LxnSjkqWvds_a51L-143" vertex="1">
                    <mxGeometry x="155" width="170" height="26" as="geometry">
                        <mxRectangle width="170" height="26" as="alternateBounds"/>
                    </mxGeometry>
                </mxCell>
                <mxCell id="KJd_LxnSjkqWvds_a51L-147" value="" style="shape=partialRectangle;collapsible=0;dropTarget=0;pointerEvents=0;fillColor=none;top=0;left=0;bottom=0;right=0;points=[[0,0.5],[1,0.5]];portConstraint=eastwest;" parent="KJd_LxnSjkqWvds_a51L-126" vertex="1">
                    <mxGeometry y="134" width="325" height="26" as="geometry"/>
                </mxCell>
                <mxCell id="KJd_LxnSjkqWvds_a51L-148" value="eth4" style="shape=partialRectangle;html=1;whiteSpace=wrap;connectable=0;overflow=hidden;fillColor=none;top=0;left=0;bottom=0;right=0;pointerEvents=1;" parent="KJd_LxnSjkqWvds_a51L-147" vertex="1">
                    <mxGeometry width="59" height="26" as="geometry">
                        <mxRectangle width="59" height="26" as="alternateBounds"/>
                    </mxGeometry>
                </mxCell>
                <mxCell id="KJd_LxnSjkqWvds_a51L-149" value="107" style="shape=partialRectangle;html=1;whiteSpace=wrap;connectable=0;overflow=hidden;fillColor=none;top=0;left=0;bottom=0;right=0;pointerEvents=1;align=center;spacingLeft=0;" parent="KJd_LxnSjkqWvds_a51L-147" vertex="1">
                    <mxGeometry x="59" width="96" height="26" as="geometry">
                        <mxRectangle width="96" height="26" as="alternateBounds"/>
                    </mxGeometry>
                </mxCell>
                <mxCell id="KJd_LxnSjkqWvds_a51L-150" value="" style="shape=partialRectangle;html=1;whiteSpace=wrap;connectable=0;overflow=hidden;fillColor=none;top=0;left=0;bottom=0;right=0;pointerEvents=1;align=left;spacingLeft=5;" parent="KJd_LxnSjkqWvds_a51L-147" vertex="1">
                    <mxGeometry x="155" width="170" height="26" as="geometry">
                        <mxRectangle width="170" height="26" as="alternateBounds"/>
                    </mxGeometry>
                </mxCell>
                <mxCell id="KJd_LxnSjkqWvds_a51L-151" value="" style="shape=partialRectangle;collapsible=0;dropTarget=0;pointerEvents=0;fillColor=none;top=0;left=0;bottom=0;right=0;points=[[0,0.5],[1,0.5]];portConstraint=eastwest;" parent="KJd_LxnSjkqWvds_a51L-126" vertex="1">
                    <mxGeometry y="160" width="325" height="26" as="geometry"/>
                </mxCell>
                <mxCell id="KJd_LxnSjkqWvds_a51L-152" value="eth5" style="shape=partialRectangle;html=1;whiteSpace=wrap;connectable=0;overflow=hidden;fillColor=none;top=0;left=0;bottom=0;right=0;pointerEvents=1;" parent="KJd_LxnSjkqWvds_a51L-151" vertex="1">
                    <mxGeometry width="59" height="26" as="geometry">
                        <mxRectangle width="59" height="26" as="alternateBounds"/>
                    </mxGeometry>
                </mxCell>
                <mxCell id="KJd_LxnSjkqWvds_a51L-153" value="107" style="shape=partialRectangle;html=1;whiteSpace=wrap;connectable=0;overflow=hidden;fillColor=none;top=0;left=0;bottom=0;right=0;pointerEvents=1;align=center;spacingLeft=0;" parent="KJd_LxnSjkqWvds_a51L-151" vertex="1">
                    <mxGeometry x="59" width="96" height="26" as="geometry">
                        <mxRectangle width="96" height="26" as="alternateBounds"/>
                    </mxGeometry>
                </mxCell>
                <mxCell id="KJd_LxnSjkqWvds_a51L-154" value="Canon MB5320 (???)" style="shape=partialRectangle;html=1;whiteSpace=wrap;connectable=0;overflow=hidden;fillColor=none;top=0;left=0;bottom=0;right=0;pointerEvents=1;align=left;spacingLeft=5;" parent="KJd_LxnSjkqWvds_a51L-151" vertex="1">
                    <mxGeometry x="155" width="170" height="26" as="geometry">
                        <mxRectangle width="170" height="26" as="alternateBounds"/>
                    </mxGeometry>
                </mxCell>
                <mxCell id="KJd_LxnSjkqWvds_a51L-155" value="" style="shape=partialRectangle;collapsible=0;dropTarget=0;pointerEvents=0;fillColor=none;top=0;left=0;bottom=0;right=0;points=[[0,0.5],[1,0.5]];portConstraint=eastwest;" parent="KJd_LxnSjkqWvds_a51L-126" vertex="1">
                    <mxGeometry y="186" width="325" height="26" as="geometry"/>
                </mxCell>
                <mxCell id="KJd_LxnSjkqWvds_a51L-156" value="eth6" style="shape=partialRectangle;html=1;whiteSpace=wrap;connectable=0;overflow=hidden;fillColor=none;top=0;left=0;bottom=0;right=0;pointerEvents=1;" parent="KJd_LxnSjkqWvds_a51L-155" vertex="1">
                    <mxGeometry width="59" height="26" as="geometry">
                        <mxRectangle width="59" height="26" as="alternateBounds"/>
                    </mxGeometry>
                </mxCell>
                <mxCell id="KJd_LxnSjkqWvds_a51L-157" value="107" style="shape=partialRectangle;html=1;whiteSpace=wrap;connectable=0;overflow=hidden;fillColor=none;top=0;left=0;bottom=0;right=0;pointerEvents=1;align=center;spacingLeft=0;" parent="KJd_LxnSjkqWvds_a51L-155" vertex="1">
                    <mxGeometry x="59" width="96" height="26" as="geometry">
                        <mxRectangle width="96" height="26" as="alternateBounds"/>
                    </mxGeometry>
                </mxCell>
                <mxCell id="KJd_LxnSjkqWvds_a51L-158" value="" style="shape=partialRectangle;html=1;whiteSpace=wrap;connectable=0;overflow=hidden;fillColor=none;top=0;left=0;bottom=0;right=0;pointerEvents=1;align=left;spacingLeft=5;" parent="KJd_LxnSjkqWvds_a51L-155" vertex="1">
                    <mxGeometry x="155" width="170" height="26" as="geometry">
                        <mxRectangle width="170" height="26" as="alternateBounds"/>
                    </mxGeometry>
                </mxCell>
                <mxCell id="KJd_LxnSjkqWvds_a51L-159" value="" style="shape=partialRectangle;collapsible=0;dropTarget=0;pointerEvents=0;fillColor=none;top=0;left=0;bottom=0;right=0;points=[[0,0.5],[1,0.5]];portConstraint=eastwest;" parent="KJd_LxnSjkqWvds_a51L-126" vertex="1">
                    <mxGeometry y="212" width="325" height="26" as="geometry"/>
                </mxCell>
                <mxCell id="KJd_LxnSjkqWvds_a51L-160" value="eth7" style="shape=partialRectangle;html=1;whiteSpace=wrap;connectable=0;overflow=hidden;fillColor=none;top=0;left=0;bottom=0;right=0;pointerEvents=1;" parent="KJd_LxnSjkqWvds_a51L-159" vertex="1">
                    <mxGeometry width="59" height="26" as="geometry">
                        <mxRectangle width="59" height="26" as="alternateBounds"/>
                    </mxGeometry>
                </mxCell>
                <mxCell id="KJd_LxnSjkqWvds_a51L-161" value="107" style="shape=partialRectangle;html=1;whiteSpace=wrap;connectable=0;overflow=hidden;fillColor=none;top=0;left=0;bottom=0;right=0;pointerEvents=1;align=center;spacingLeft=0;" parent="KJd_LxnSjkqWvds_a51L-159" vertex="1">
                    <mxGeometry x="59" width="96" height="26" as="geometry">
                        <mxRectangle width="96" height="26" as="alternateBounds"/>
                    </mxGeometry>
                </mxCell>
                <mxCell id="KJd_LxnSjkqWvds_a51L-162" value="Lutron Bridge" style="shape=partialRectangle;html=1;whiteSpace=wrap;connectable=0;overflow=hidden;fillColor=none;top=0;left=0;bottom=0;right=0;pointerEvents=1;align=left;spacingLeft=5;" parent="KJd_LxnSjkqWvds_a51L-159" vertex="1">
                    <mxGeometry x="155" width="170" height="26" as="geometry">
                        <mxRectangle width="170" height="26" as="alternateBounds"/>
                    </mxGeometry>
                </mxCell>
                <mxCell id="KJd_LxnSjkqWvds_a51L-163" value="" style="shape=partialRectangle;collapsible=0;dropTarget=0;pointerEvents=0;fillColor=none;top=0;left=0;bottom=0;right=0;points=[[0,0.5],[1,0.5]];portConstraint=eastwest;" parent="KJd_LxnSjkqWvds_a51L-126" vertex="1">
                    <mxGeometry y="238" width="325" height="26" as="geometry"/>
                </mxCell>
                <mxCell id="KJd_LxnSjkqWvds_a51L-164" value="eth8" style="shape=partialRectangle;html=1;whiteSpace=wrap;connectable=0;overflow=hidden;fillColor=none;top=0;left=0;bottom=0;right=0;pointerEvents=1;" parent="KJd_LxnSjkqWvds_a51L-163" vertex="1">
                    <mxGeometry width="59" height="26" as="geometry">
                        <mxRectangle width="59" height="26" as="alternateBounds"/>
                    </mxGeometry>
                </mxCell>
                <mxCell id="KJd_LxnSjkqWvds_a51L-165" value="107" style="shape=partialRectangle;html=1;whiteSpace=wrap;connectable=0;overflow=hidden;fillColor=none;top=0;left=0;bottom=0;right=0;pointerEvents=1;align=center;spacingLeft=0;" parent="KJd_LxnSjkqWvds_a51L-163" vertex="1">
                    <mxGeometry x="59" width="96" height="26" as="geometry">
                        <mxRectangle width="96" height="26" as="alternateBounds"/>
                    </mxGeometry>
                </mxCell>
                <mxCell id="KJd_LxnSjkqWvds_a51L-166" value="Ring Alarm Base Station" style="shape=partialRectangle;html=1;whiteSpace=wrap;connectable=0;overflow=hidden;fillColor=none;top=0;left=0;bottom=0;right=0;pointerEvents=1;align=left;spacingLeft=5;" parent="KJd_LxnSjkqWvds_a51L-163" vertex="1">
                    <mxGeometry x="155" width="170" height="26" as="geometry">
                        <mxRectangle width="170" height="26" as="alternateBounds"/>
                    </mxGeometry>
                </mxCell>
                <mxCell id="KJd_LxnSjkqWvds_a51L-167" style="shape=partialRectangle;collapsible=0;dropTarget=0;pointerEvents=0;fillColor=none;top=0;left=0;bottom=0;right=0;points=[[0,0.5],[1,0.5]];portConstraint=eastwest;" parent="KJd_LxnSjkqWvds_a51L-126" vertex="1">
                    <mxGeometry y="264" width="325" height="26" as="geometry"/>
                </mxCell>
                <mxCell id="KJd_LxnSjkqWvds_a51L-168" value="sfp9" style="shape=partialRectangle;html=1;whiteSpace=wrap;connectable=0;overflow=hidden;fillColor=none;top=0;left=0;bottom=0;right=0;pointerEvents=1;" parent="KJd_LxnSjkqWvds_a51L-167" vertex="1">
                    <mxGeometry width="59" height="26" as="geometry">
                        <mxRectangle width="59" height="26" as="alternateBounds"/>
                    </mxGeometry>
                </mxCell>
                <mxCell id="KJd_LxnSjkqWvds_a51L-169" value="[99,101,107,119]" style="shape=partialRectangle;html=1;whiteSpace=wrap;connectable=0;overflow=hidden;fillColor=none;top=0;left=0;bottom=0;right=0;pointerEvents=1;align=center;spacingLeft=0;" parent="KJd_LxnSjkqWvds_a51L-167" vertex="1">
                    <mxGeometry x="59" width="96" height="26" as="geometry">
                        <mxRectangle width="96" height="26" as="alternateBounds"/>
                    </mxGeometry>
                </mxCell>
                <mxCell id="KJd_LxnSjkqWvds_a51L-170" style="shape=partialRectangle;html=1;whiteSpace=wrap;connectable=0;overflow=hidden;fillColor=none;top=0;left=0;bottom=0;right=0;pointerEvents=1;align=left;spacingLeft=5;" parent="KJd_LxnSjkqWvds_a51L-167" vertex="1">
                    <mxGeometry x="155" width="170" height="26" as="geometry">
                        <mxRectangle width="170" height="26" as="alternateBounds"/>
                    </mxGeometry>
                </mxCell>
                <mxCell id="KJd_LxnSjkqWvds_a51L-171" style="shape=partialRectangle;collapsible=0;dropTarget=0;pointerEvents=0;fillColor=none;top=0;left=0;bottom=0;right=0;points=[[0,0.5],[1,0.5]];portConstraint=eastwest;" parent="KJd_LxnSjkqWvds_a51L-126" vertex="1">
                    <mxGeometry y="290" width="325" height="26" as="geometry"/>
                </mxCell>
                <mxCell id="KJd_LxnSjkqWvds_a51L-172" value="sfp10" style="shape=partialRectangle;html=1;whiteSpace=wrap;connectable=0;overflow=hidden;fillColor=none;top=0;left=0;bottom=0;right=0;pointerEvents=1;" parent="KJd_LxnSjkqWvds_a51L-171" vertex="1">
                    <mxGeometry width="59" height="26" as="geometry">
                        <mxRectangle width="59" height="26" as="alternateBounds"/>
                    </mxGeometry>
                </mxCell>
                <mxCell id="KJd_LxnSjkqWvds_a51L-173" value="[99,101,107,119]" style="shape=partialRectangle;html=1;whiteSpace=wrap;connectable=0;overflow=hidden;fillColor=none;top=0;left=0;bottom=0;right=0;pointerEvents=1;align=center;spacingLeft=0;" parent="KJd_LxnSjkqWvds_a51L-171" vertex="1">
                    <mxGeometry x="59" width="96" height="26" as="geometry">
                        <mxRectangle width="96" height="26" as="alternateBounds"/>
                    </mxGeometry>
                </mxCell>
                <mxCell id="KJd_LxnSjkqWvds_a51L-174" style="shape=partialRectangle;html=1;whiteSpace=wrap;connectable=0;overflow=hidden;fillColor=none;top=0;left=0;bottom=0;right=0;pointerEvents=1;align=left;spacingLeft=5;" parent="KJd_LxnSjkqWvds_a51L-171" vertex="1">
                    <mxGeometry x="155" width="170" height="26" as="geometry">
                        <mxRectangle width="170" height="26" as="alternateBounds"/>
                    </mxGeometry>
                </mxCell>
                <mxCell id="KJd_LxnSjkqWvds_a51L-175" style="shape=partialRectangle;collapsible=0;dropTarget=0;pointerEvents=0;fillColor=none;top=0;left=0;bottom=0;right=0;points=[[0,0.5],[1,0.5]];portConstraint=eastwest;" parent="KJd_LxnSjkqWvds_a51L-126" vertex="1">
                    <mxGeometry y="316" width="325" height="26" as="geometry"/>
                </mxCell>
                <mxCell id="KJd_LxnSjkqWvds_a51L-176" value="sfp11" style="shape=partialRectangle;html=1;whiteSpace=wrap;connectable=0;overflow=hidden;fillColor=none;top=0;left=0;bottom=0;right=0;pointerEvents=1;" parent="KJd_LxnSjkqWvds_a51L-175" vertex="1">
                    <mxGeometry width="59" height="26" as="geometry">
                        <mxRectangle width="59" height="26" as="alternateBounds"/>
                    </mxGeometry>
                </mxCell>
                <mxCell id="KJd_LxnSjkqWvds_a51L-177" value="[99,101,107,119]" style="shape=partialRectangle;html=1;whiteSpace=wrap;connectable=0;overflow=hidden;fillColor=none;top=0;left=0;bottom=0;right=0;pointerEvents=1;align=center;spacingLeft=0;" parent="KJd_LxnSjkqWvds_a51L-175" vertex="1">
                    <mxGeometry x="59" width="96" height="26" as="geometry">
                        <mxRectangle width="96" height="26" as="alternateBounds"/>
                    </mxGeometry>
                </mxCell>
                <mxCell id="KJd_LxnSjkqWvds_a51L-178" style="shape=partialRectangle;html=1;whiteSpace=wrap;connectable=0;overflow=hidden;fillColor=none;top=0;left=0;bottom=0;right=0;pointerEvents=1;align=left;spacingLeft=5;" parent="KJd_LxnSjkqWvds_a51L-175" vertex="1">
                    <mxGeometry x="155" width="170" height="26" as="geometry">
                        <mxRectangle width="170" height="26" as="alternateBounds"/>
                    </mxGeometry>
                </mxCell>
                <mxCell id="KJd_LxnSjkqWvds_a51L-179" style="shape=partialRectangle;collapsible=0;dropTarget=0;pointerEvents=0;fillColor=none;top=0;left=0;bottom=0;right=0;points=[[0,0.5],[1,0.5]];portConstraint=eastwest;" parent="KJd_LxnSjkqWvds_a51L-126" vertex="1">
                    <mxGeometry y="342" width="325" height="26" as="geometry"/>
                </mxCell>
                <mxCell id="KJd_LxnSjkqWvds_a51L-180" value="sfp12" style="shape=partialRectangle;html=1;whiteSpace=wrap;connectable=0;overflow=hidden;fillColor=none;top=0;left=0;bottom=0;right=0;pointerEvents=1;" parent="KJd_LxnSjkqWvds_a51L-179" vertex="1">
                    <mxGeometry width="59" height="26" as="geometry">
                        <mxRectangle width="59" height="26" as="alternateBounds"/>
                    </mxGeometry>
                </mxCell>
                <mxCell id="KJd_LxnSjkqWvds_a51L-181" value="[99,101,107,119]" style="shape=partialRectangle;html=1;whiteSpace=wrap;connectable=0;overflow=hidden;fillColor=none;top=0;left=0;bottom=0;right=0;pointerEvents=1;align=center;spacingLeft=0;" parent="KJd_LxnSjkqWvds_a51L-179" vertex="1">
                    <mxGeometry x="59" width="96" height="26" as="geometry">
                        <mxRectangle width="96" height="26" as="alternateBounds"/>
                    </mxGeometry>
                </mxCell>
                <mxCell id="KJd_LxnSjkqWvds_a51L-182" style="shape=partialRectangle;html=1;whiteSpace=wrap;connectable=0;overflow=hidden;fillColor=none;top=0;left=0;bottom=0;right=0;pointerEvents=1;align=left;spacingLeft=5;" parent="KJd_LxnSjkqWvds_a51L-179" vertex="1">
                    <mxGeometry x="155" width="170" height="26" as="geometry">
                        <mxRectangle width="170" height="26" as="alternateBounds"/>
                    </mxGeometry>
                </mxCell>
                <mxCell id="KJd_LxnSjkqWvds_a51L-183" value="TP Link&#10;TL-SG108E" style="shape=table;startSize=30;container=1;collapsible=0;childLayout=tableLayout;fontStyle=1;spacingTop=0;spacingBottom=0;" parent="1" vertex="1">
                    <mxGeometry x="1295" y="687" width="325" height="264" as="geometry"/>
                </mxCell>
                <mxCell id="KJd_LxnSjkqWvds_a51L-184" value="" style="shape=partialRectangle;collapsible=0;dropTarget=0;pointerEvents=0;fillColor=none;top=0;left=0;bottom=0;right=0;points=[[0,0.5],[1,0.5]];portConstraint=eastwest;" parent="KJd_LxnSjkqWvds_a51L-183" vertex="1">
                    <mxGeometry y="30" width="325" height="26" as="geometry"/>
                </mxCell>
                <mxCell id="KJd_LxnSjkqWvds_a51L-185" value="Port" style="shape=partialRectangle;html=1;whiteSpace=wrap;connectable=0;overflow=hidden;fillColor=none;top=0;left=0;bottom=0;right=0;pointerEvents=1;fontStyle=1;fontSize=11;" parent="KJd_LxnSjkqWvds_a51L-184" vertex="1">
                    <mxGeometry width="60" height="26" as="geometry">
                        <mxRectangle width="60" height="26" as="alternateBounds"/>
                    </mxGeometry>
                </mxCell>
                <mxCell id="KJd_LxnSjkqWvds_a51L-186" value="VLID" style="shape=partialRectangle;html=1;whiteSpace=wrap;connectable=0;overflow=hidden;fillColor=none;top=0;left=0;bottom=0;right=0;pointerEvents=1;fontStyle=1;fontSize=11;" parent="KJd_LxnSjkqWvds_a51L-184" vertex="1">
                    <mxGeometry x="60" width="110" height="26" as="geometry">
                        <mxRectangle width="110" height="26" as="alternateBounds"/>
                    </mxGeometry>
                </mxCell>
                <mxCell id="KJd_LxnSjkqWvds_a51L-187" value="Device" style="shape=partialRectangle;html=1;whiteSpace=wrap;connectable=0;overflow=hidden;fillColor=none;top=0;left=0;bottom=0;right=0;pointerEvents=1;align=center;spacingLeft=5;fontStyle=1;fontSize=11;" parent="KJd_LxnSjkqWvds_a51L-184" vertex="1">
                    <mxGeometry x="170" width="155" height="26" as="geometry">
                        <mxRectangle width="155" height="26" as="alternateBounds"/>
                    </mxGeometry>
                </mxCell>
                <mxCell id="KJd_LxnSjkqWvds_a51L-192" value="" style="shape=partialRectangle;collapsible=0;dropTarget=0;pointerEvents=0;fillColor=none;top=0;left=0;bottom=0;right=0;points=[[0,0.5],[1,0.5]];portConstraint=eastwest;" parent="KJd_LxnSjkqWvds_a51L-183" vertex="1">
                    <mxGeometry y="56" width="325" height="26" as="geometry"/>
                </mxCell>
                <mxCell id="KJd_LxnSjkqWvds_a51L-193" value="eth1" style="shape=partialRectangle;html=1;whiteSpace=wrap;connectable=0;overflow=hidden;fillColor=none;top=0;left=0;bottom=0;right=0;pointerEvents=1;" parent="KJd_LxnSjkqWvds_a51L-192" vertex="1">
                    <mxGeometry width="60" height="26" as="geometry">
                        <mxRectangle width="60" height="26" as="alternateBounds"/>
                    </mxGeometry>
                </mxCell>
                <mxCell id="KJd_LxnSjkqWvds_a51L-194" value="107" style="shape=partialRectangle;html=1;whiteSpace=wrap;connectable=0;overflow=hidden;fillColor=none;top=0;left=0;bottom=0;right=0;pointerEvents=1;align=center;spacingLeft=0;" parent="KJd_LxnSjkqWvds_a51L-192" vertex="1">
                    <mxGeometry x="60" width="110" height="26" as="geometry">
                        <mxRectangle width="110" height="26" as="alternateBounds"/>
                    </mxGeometry>
                </mxCell>
                <mxCell id="KJd_LxnSjkqWvds_a51L-195" value="&lt;div&gt;&lt;b&gt;MT CRS112-8G-4S&lt;/b&gt;&lt;br&gt;&lt;/div&gt;" style="shape=partialRectangle;html=1;whiteSpace=wrap;connectable=0;overflow=hidden;fillColor=none;top=0;left=0;bottom=0;right=0;pointerEvents=1;align=left;spacingLeft=5;" parent="KJd_LxnSjkqWvds_a51L-192" vertex="1">
                    <mxGeometry x="170" width="155" height="26" as="geometry">
                        <mxRectangle width="155" height="26" as="alternateBounds"/>
                    </mxGeometry>
                </mxCell>
                <mxCell id="KJd_LxnSjkqWvds_a51L-196" value="" style="shape=partialRectangle;collapsible=0;dropTarget=0;pointerEvents=0;fillColor=none;top=0;left=0;bottom=0;right=0;points=[[0,0.5],[1,0.5]];portConstraint=eastwest;" parent="KJd_LxnSjkqWvds_a51L-183" vertex="1">
                    <mxGeometry y="82" width="325" height="26" as="geometry"/>
                </mxCell>
                <mxCell id="KJd_LxnSjkqWvds_a51L-197" value="eth2" style="shape=partialRectangle;html=1;whiteSpace=wrap;connectable=0;overflow=hidden;fillColor=none;top=0;left=0;bottom=0;right=0;pointerEvents=1;" parent="KJd_LxnSjkqWvds_a51L-196" vertex="1">
                    <mxGeometry width="60" height="26" as="geometry">
                        <mxRectangle width="60" height="26" as="alternateBounds"/>
                    </mxGeometry>
                </mxCell>
                <mxCell id="KJd_LxnSjkqWvds_a51L-198" value="107" style="shape=partialRectangle;html=1;whiteSpace=wrap;connectable=0;overflow=hidden;fillColor=none;top=0;left=0;bottom=0;right=0;pointerEvents=1;align=center;spacingLeft=0;" parent="KJd_LxnSjkqWvds_a51L-196" vertex="1">
                    <mxGeometry x="60" width="110" height="26" as="geometry">
                        <mxRectangle width="110" height="26" as="alternateBounds"/>
                    </mxGeometry>
                </mxCell>
                <mxCell id="KJd_LxnSjkqWvds_a51L-199" value="&lt;span&gt;Denon AVR-X2300W&lt;/span&gt;" style="shape=partialRectangle;html=1;whiteSpace=wrap;connectable=0;overflow=hidden;fillColor=none;top=0;left=0;bottom=0;right=0;pointerEvents=1;align=left;spacingLeft=5;" parent="KJd_LxnSjkqWvds_a51L-196" vertex="1">
                    <mxGeometry x="170" width="155" height="26" as="geometry">
                        <mxRectangle width="155" height="26" as="alternateBounds"/>
                    </mxGeometry>
                </mxCell>
                <mxCell id="KJd_LxnSjkqWvds_a51L-200" value="" style="shape=partialRectangle;collapsible=0;dropTarget=0;pointerEvents=0;fillColor=none;top=0;left=0;bottom=0;right=0;points=[[0,0.5],[1,0.5]];portConstraint=eastwest;" parent="KJd_LxnSjkqWvds_a51L-183" vertex="1">
                    <mxGeometry y="108" width="325" height="26" as="geometry"/>
                </mxCell>
                <mxCell id="KJd_LxnSjkqWvds_a51L-201" value="eth3" style="shape=partialRectangle;html=1;whiteSpace=wrap;connectable=0;overflow=hidden;fillColor=none;top=0;left=0;bottom=0;right=0;pointerEvents=1;" parent="KJd_LxnSjkqWvds_a51L-200" vertex="1">
                    <mxGeometry width="60" height="26" as="geometry">
                        <mxRectangle width="60" height="26" as="alternateBounds"/>
                    </mxGeometry>
                </mxCell>
                <mxCell id="KJd_LxnSjkqWvds_a51L-202" value="107" style="shape=partialRectangle;html=1;whiteSpace=wrap;connectable=0;overflow=hidden;fillColor=none;top=0;left=0;bottom=0;right=0;pointerEvents=1;align=center;spacingLeft=0;" parent="KJd_LxnSjkqWvds_a51L-200" vertex="1">
                    <mxGeometry x="60" width="110" height="26" as="geometry">
                        <mxRectangle width="110" height="26" as="alternateBounds"/>
                    </mxGeometry>
                </mxCell>
                <mxCell id="KJd_LxnSjkqWvds_a51L-203" value="&lt;span&gt;Samsung MU7000 HDTV&lt;/span&gt;" style="shape=partialRectangle;html=1;whiteSpace=wrap;connectable=0;overflow=hidden;fillColor=none;top=0;left=0;bottom=0;right=0;pointerEvents=1;align=left;spacingLeft=5;" parent="KJd_LxnSjkqWvds_a51L-200" vertex="1">
                    <mxGeometry x="170" width="155" height="26" as="geometry">
                        <mxRectangle width="155" height="26" as="alternateBounds"/>
                    </mxGeometry>
                </mxCell>
                <mxCell id="KJd_LxnSjkqWvds_a51L-204" value="" style="shape=partialRectangle;collapsible=0;dropTarget=0;pointerEvents=0;fillColor=none;top=0;left=0;bottom=0;right=0;points=[[0,0.5],[1,0.5]];portConstraint=eastwest;" parent="KJd_LxnSjkqWvds_a51L-183" vertex="1">
                    <mxGeometry y="134" width="325" height="26" as="geometry"/>
                </mxCell>
                <mxCell id="KJd_LxnSjkqWvds_a51L-205" value="eth4" style="shape=partialRectangle;html=1;whiteSpace=wrap;connectable=0;overflow=hidden;fillColor=none;top=0;left=0;bottom=0;right=0;pointerEvents=1;" parent="KJd_LxnSjkqWvds_a51L-204" vertex="1">
                    <mxGeometry width="60" height="26" as="geometry">
                        <mxRectangle width="60" height="26" as="alternateBounds"/>
                    </mxGeometry>
                </mxCell>
                <mxCell id="KJd_LxnSjkqWvds_a51L-206" value="107" style="shape=partialRectangle;html=1;whiteSpace=wrap;connectable=0;overflow=hidden;fillColor=none;top=0;left=0;bottom=0;right=0;pointerEvents=1;align=center;spacingLeft=0;" parent="KJd_LxnSjkqWvds_a51L-204" vertex="1">
                    <mxGeometry x="60" width="110" height="26" as="geometry">
                        <mxRectangle width="110" height="26" as="alternateBounds"/>
                    </mxGeometry>
                </mxCell>
                <mxCell id="KJd_LxnSjkqWvds_a51L-207" value="&lt;span&gt;Dish Receiver&lt;/span&gt;" style="shape=partialRectangle;html=1;whiteSpace=wrap;connectable=0;overflow=hidden;fillColor=none;top=0;left=0;bottom=0;right=0;pointerEvents=1;align=left;spacingLeft=5;" parent="KJd_LxnSjkqWvds_a51L-204" vertex="1">
                    <mxGeometry x="170" width="155" height="26" as="geometry">
                        <mxRectangle width="155" height="26" as="alternateBounds"/>
                    </mxGeometry>
                </mxCell>
                <mxCell id="KJd_LxnSjkqWvds_a51L-208" value="" style="shape=partialRectangle;collapsible=0;dropTarget=0;pointerEvents=0;fillColor=none;top=0;left=0;bottom=0;right=0;points=[[0,0.5],[1,0.5]];portConstraint=eastwest;" parent="KJd_LxnSjkqWvds_a51L-183" vertex="1">
                    <mxGeometry y="160" width="325" height="26" as="geometry"/>
                </mxCell>
                <mxCell id="KJd_LxnSjkqWvds_a51L-209" value="eth5" style="shape=partialRectangle;html=1;whiteSpace=wrap;connectable=0;overflow=hidden;fillColor=none;top=0;left=0;bottom=0;right=0;pointerEvents=1;" parent="KJd_LxnSjkqWvds_a51L-208" vertex="1">
                    <mxGeometry width="60" height="26" as="geometry">
                        <mxRectangle width="60" height="26" as="alternateBounds"/>
                    </mxGeometry>
                </mxCell>
                <mxCell id="KJd_LxnSjkqWvds_a51L-210" value="107" style="shape=partialRectangle;html=1;whiteSpace=wrap;connectable=0;overflow=hidden;fillColor=none;top=0;left=0;bottom=0;right=0;pointerEvents=1;align=center;spacingLeft=0;" parent="KJd_LxnSjkqWvds_a51L-208" vertex="1">
                    <mxGeometry x="60" width="110" height="26" as="geometry">
                        <mxRectangle width="110" height="26" as="alternateBounds"/>
                    </mxGeometry>
                </mxCell>
                <mxCell id="KJd_LxnSjkqWvds_a51L-211" value="&lt;span&gt;Roku Ultra&lt;/span&gt;" style="shape=partialRectangle;html=1;whiteSpace=wrap;connectable=0;overflow=hidden;fillColor=none;top=0;left=0;bottom=0;right=0;pointerEvents=1;align=left;spacingLeft=5;" parent="KJd_LxnSjkqWvds_a51L-208" vertex="1">
                    <mxGeometry x="170" width="155" height="26" as="geometry">
                        <mxRectangle width="155" height="26" as="alternateBounds"/>
                    </mxGeometry>
                </mxCell>
                <mxCell id="KJd_LxnSjkqWvds_a51L-212" value="" style="shape=partialRectangle;collapsible=0;dropTarget=0;pointerEvents=0;fillColor=none;top=0;left=0;bottom=0;right=0;points=[[0,0.5],[1,0.5]];portConstraint=eastwest;" parent="KJd_LxnSjkqWvds_a51L-183" vertex="1">
                    <mxGeometry y="186" width="325" height="26" as="geometry"/>
                </mxCell>
                <mxCell id="KJd_LxnSjkqWvds_a51L-213" value="eth6" style="shape=partialRectangle;html=1;whiteSpace=wrap;connectable=0;overflow=hidden;fillColor=none;top=0;left=0;bottom=0;right=0;pointerEvents=1;" parent="KJd_LxnSjkqWvds_a51L-212" vertex="1">
                    <mxGeometry width="60" height="26" as="geometry">
                        <mxRectangle width="60" height="26" as="alternateBounds"/>
                    </mxGeometry>
                </mxCell>
                <mxCell id="KJd_LxnSjkqWvds_a51L-214" value="107" style="shape=partialRectangle;html=1;whiteSpace=wrap;connectable=0;overflow=hidden;fillColor=none;top=0;left=0;bottom=0;right=0;pointerEvents=1;align=center;spacingLeft=0;" parent="KJd_LxnSjkqWvds_a51L-212" vertex="1">
                    <mxGeometry x="60" width="110" height="26" as="geometry">
                        <mxRectangle width="110" height="26" as="alternateBounds"/>
                    </mxGeometry>
                </mxCell>
                <mxCell id="KJd_LxnSjkqWvds_a51L-215" value="&lt;span&gt;Nintendo Switch&lt;/span&gt;" style="shape=partialRectangle;html=1;whiteSpace=wrap;connectable=0;overflow=hidden;fillColor=none;top=0;left=0;bottom=0;right=0;pointerEvents=1;align=left;spacingLeft=5;" parent="KJd_LxnSjkqWvds_a51L-212" vertex="1">
                    <mxGeometry x="170" width="155" height="26" as="geometry">
                        <mxRectangle width="155" height="26" as="alternateBounds"/>
                    </mxGeometry>
                </mxCell>
                <mxCell id="KJd_LxnSjkqWvds_a51L-216" value="" style="shape=partialRectangle;collapsible=0;dropTarget=0;pointerEvents=0;fillColor=none;top=0;left=0;bottom=0;right=0;points=[[0,0.5],[1,0.5]];portConstraint=eastwest;" parent="KJd_LxnSjkqWvds_a51L-183" vertex="1">
                    <mxGeometry y="212" width="325" height="26" as="geometry"/>
                </mxCell>
                <mxCell id="KJd_LxnSjkqWvds_a51L-217" value="eth7" style="shape=partialRectangle;html=1;whiteSpace=wrap;connectable=0;overflow=hidden;fillColor=none;top=0;left=0;bottom=0;right=0;pointerEvents=1;" parent="KJd_LxnSjkqWvds_a51L-216" vertex="1">
                    <mxGeometry width="60" height="26" as="geometry">
                        <mxRectangle width="60" height="26" as="alternateBounds"/>
                    </mxGeometry>
                </mxCell>
                <mxCell id="KJd_LxnSjkqWvds_a51L-218" value="107" style="shape=partialRectangle;html=1;whiteSpace=wrap;connectable=0;overflow=hidden;fillColor=none;top=0;left=0;bottom=0;right=0;pointerEvents=1;align=center;spacingLeft=0;" parent="KJd_LxnSjkqWvds_a51L-216" vertex="1">
                    <mxGeometry x="60" width="110" height="26" as="geometry">
                        <mxRectangle width="110" height="26" as="alternateBounds"/>
                    </mxGeometry>
                </mxCell>
                <mxCell id="KJd_LxnSjkqWvds_a51L-219" value="" style="shape=partialRectangle;html=1;whiteSpace=wrap;connectable=0;overflow=hidden;fillColor=none;top=0;left=0;bottom=0;right=0;pointerEvents=1;align=left;spacingLeft=5;" parent="KJd_LxnSjkqWvds_a51L-216" vertex="1">
                    <mxGeometry x="170" width="155" height="26" as="geometry">
                        <mxRectangle width="155" height="26" as="alternateBounds"/>
                    </mxGeometry>
                </mxCell>
                <mxCell id="KJd_LxnSjkqWvds_a51L-220" value="" style="shape=partialRectangle;collapsible=0;dropTarget=0;pointerEvents=0;fillColor=none;top=0;left=0;bottom=0;right=0;points=[[0,0.5],[1,0.5]];portConstraint=eastwest;" parent="KJd_LxnSjkqWvds_a51L-183" vertex="1">
                    <mxGeometry y="238" width="325" height="26" as="geometry"/>
                </mxCell>
                <mxCell id="KJd_LxnSjkqWvds_a51L-221" value="eth8" style="shape=partialRectangle;html=1;whiteSpace=wrap;connectable=0;overflow=hidden;fillColor=none;top=0;left=0;bottom=0;right=0;pointerEvents=1;" parent="KJd_LxnSjkqWvds_a51L-220" vertex="1">
                    <mxGeometry width="60" height="26" as="geometry">
                        <mxRectangle width="60" height="26" as="alternateBounds"/>
                    </mxGeometry>
                </mxCell>
                <mxCell id="KJd_LxnSjkqWvds_a51L-222" value="107" style="shape=partialRectangle;html=1;whiteSpace=wrap;connectable=0;overflow=hidden;fillColor=none;top=0;left=0;bottom=0;right=0;pointerEvents=1;align=center;spacingLeft=0;" parent="KJd_LxnSjkqWvds_a51L-220" vertex="1">
                    <mxGeometry x="60" width="110" height="26" as="geometry">
                        <mxRectangle width="110" height="26" as="alternateBounds"/>
                    </mxGeometry>
                </mxCell>
                <mxCell id="KJd_LxnSjkqWvds_a51L-223" value="" style="shape=partialRectangle;html=1;whiteSpace=wrap;connectable=0;overflow=hidden;fillColor=none;top=0;left=0;bottom=0;right=0;pointerEvents=1;align=left;spacingLeft=5;" parent="KJd_LxnSjkqWvds_a51L-220" vertex="1">
                    <mxGeometry x="170" width="155" height="26" as="geometry">
                        <mxRectangle width="155" height="26" as="alternateBounds"/>
                    </mxGeometry>
                </mxCell>
                <mxCell id="KJd_LxnSjkqWvds_a51L-224" value="MikroTik CRS328-24P-4S+&#10;(SW02-Office-NR5)" style="shape=table;startSize=30;container=1;collapsible=0;childLayout=tableLayout;fontStyle=1;spacingTop=0;spacingBottom=0;" parent="1" vertex="1">
                    <mxGeometry x="1640" y="6.5" width="335" height="781.5" as="geometry"/>
                </mxCell>
                <mxCell id="KJd_LxnSjkqWvds_a51L-225" value="" style="shape=partialRectangle;collapsible=0;dropTarget=0;pointerEvents=0;fillColor=none;top=0;left=0;bottom=0;right=0;points=[[0,0.5],[1,0.5]];portConstraint=eastwest;" parent="KJd_LxnSjkqWvds_a51L-224" vertex="1">
                    <mxGeometry y="30" width="335" height="24" as="geometry"/>
                </mxCell>
                <mxCell id="KJd_LxnSjkqWvds_a51L-226" value="Port" style="shape=partialRectangle;html=1;whiteSpace=wrap;connectable=0;overflow=hidden;fillColor=none;top=0;left=0;bottom=0;right=0;pointerEvents=1;fontStyle=1;fontSize=11;" parent="KJd_LxnSjkqWvds_a51L-225" vertex="1">
                    <mxGeometry width="63" height="24" as="geometry">
                        <mxRectangle width="63" height="24" as="alternateBounds"/>
                    </mxGeometry>
                </mxCell>
                <mxCell id="KJd_LxnSjkqWvds_a51L-227" value="VLID" style="shape=partialRectangle;html=1;whiteSpace=wrap;connectable=0;overflow=hidden;fillColor=none;top=0;left=0;bottom=0;right=0;pointerEvents=1;fontStyle=1;fontSize=11;" parent="KJd_LxnSjkqWvds_a51L-225" vertex="1">
                    <mxGeometry x="63" width="102" height="24" as="geometry">
                        <mxRectangle width="102" height="24" as="alternateBounds"/>
                    </mxGeometry>
                </mxCell>
                <mxCell id="KJd_LxnSjkqWvds_a51L-228" value="Device" style="shape=partialRectangle;html=1;whiteSpace=wrap;connectable=0;overflow=hidden;fillColor=none;top=0;left=0;bottom=0;right=0;pointerEvents=1;align=center;spacingLeft=5;fontStyle=1;fontSize=11;" parent="KJd_LxnSjkqWvds_a51L-225" vertex="1">
                    <mxGeometry x="165" width="170" height="24" as="geometry">
                        <mxRectangle width="170" height="24" as="alternateBounds"/>
                    </mxGeometry>
                </mxCell>
                <mxCell id="KJd_LxnSjkqWvds_a51L-229" value="" style="shape=partialRectangle;collapsible=0;dropTarget=0;pointerEvents=0;fillColor=none;top=0;left=0;bottom=0;right=0;points=[[0,0.5],[1,0.5]];portConstraint=eastwest;" parent="KJd_LxnSjkqWvds_a51L-224" vertex="1">
                    <mxGeometry y="54" width="335" height="26" as="geometry"/>
                </mxCell>
                <mxCell id="KJd_LxnSjkqWvds_a51L-230" value="eth1" style="shape=partialRectangle;html=1;whiteSpace=wrap;connectable=0;overflow=hidden;fillColor=none;top=0;left=0;bottom=0;right=0;pointerEvents=1;" parent="KJd_LxnSjkqWvds_a51L-229" vertex="1">
                    <mxGeometry width="63" height="26" as="geometry">
                        <mxRectangle width="63" height="26" as="alternateBounds"/>
                    </mxGeometry>
                </mxCell>
                <mxCell id="KJd_LxnSjkqWvds_a51L-231" value="[99,101,107,119]" style="shape=partialRectangle;html=1;whiteSpace=wrap;connectable=0;overflow=hidden;fillColor=none;top=0;left=0;bottom=0;right=0;pointerEvents=1;align=center;spacingLeft=0;" parent="KJd_LxnSjkqWvds_a51L-229" vertex="1">
                    <mxGeometry x="63" width="102" height="26" as="geometry">
                        <mxRectangle width="102" height="26" as="alternateBounds"/>
                    </mxGeometry>
                </mxCell>
                <mxCell id="KJd_LxnSjkqWvds_a51L-232" value="&lt;div&gt;&lt;/div&gt;&lt;b&gt;MT RB5009UG+S+&lt;/b&gt;&lt;span style=&quot;text-align: center&quot;&gt;&lt;br&gt;&lt;/span&gt;" style="shape=partialRectangle;html=1;whiteSpace=wrap;connectable=0;overflow=hidden;fillColor=none;top=0;left=0;bottom=0;right=0;pointerEvents=1;align=left;spacingLeft=5;" parent="KJd_LxnSjkqWvds_a51L-229" vertex="1">
                    <mxGeometry x="165" width="170" height="26" as="geometry">
                        <mxRectangle width="170" height="26" as="alternateBounds"/>
                    </mxGeometry>
                </mxCell>
                <mxCell id="KJd_LxnSjkqWvds_a51L-233" value="" style="shape=partialRectangle;collapsible=0;dropTarget=0;pointerEvents=0;fillColor=none;top=0;left=0;bottom=0;right=0;points=[[0,0.5],[1,0.5]];portConstraint=eastwest;" parent="KJd_LxnSjkqWvds_a51L-224" vertex="1">
                    <mxGeometry y="80" width="335" height="26" as="geometry"/>
                </mxCell>
                <mxCell id="KJd_LxnSjkqWvds_a51L-234" value="eth2" style="shape=partialRectangle;html=1;whiteSpace=wrap;connectable=0;overflow=hidden;fillColor=none;top=0;left=0;bottom=0;right=0;pointerEvents=1;" parent="KJd_LxnSjkqWvds_a51L-233" vertex="1">
                    <mxGeometry width="63" height="26" as="geometry">
                        <mxRectangle width="63" height="26" as="alternateBounds"/>
                    </mxGeometry>
                </mxCell>
                <mxCell id="KJd_LxnSjkqWvds_a51L-235" value="[99,101,107,119]" style="shape=partialRectangle;html=1;whiteSpace=wrap;connectable=0;overflow=hidden;fillColor=none;top=0;left=0;bottom=0;right=0;pointerEvents=1;align=center;spacingLeft=0;" parent="KJd_LxnSjkqWvds_a51L-233" vertex="1">
                    <mxGeometry x="63" width="102" height="26" as="geometry">
                        <mxRectangle width="102" height="26" as="alternateBounds"/>
                    </mxGeometry>
                </mxCell>
                <mxCell id="KJd_LxnSjkqWvds_a51L-236" value="" style="shape=partialRectangle;html=1;whiteSpace=wrap;connectable=0;overflow=hidden;fillColor=none;top=0;left=0;bottom=0;right=0;pointerEvents=1;align=left;spacingLeft=5;" parent="KJd_LxnSjkqWvds_a51L-233" vertex="1">
                    <mxGeometry x="165" width="170" height="26" as="geometry">
                        <mxRectangle width="170" height="26" as="alternateBounds"/>
                    </mxGeometry>
                </mxCell>
                <mxCell id="KJd_LxnSjkqWvds_a51L-237" value="" style="shape=partialRectangle;collapsible=0;dropTarget=0;pointerEvents=0;fillColor=none;top=0;left=0;bottom=0;right=0;points=[[0,0.5],[1,0.5]];portConstraint=eastwest;" parent="KJd_LxnSjkqWvds_a51L-224" vertex="1">
                    <mxGeometry y="106" width="335" height="26" as="geometry"/>
                </mxCell>
                <mxCell id="KJd_LxnSjkqWvds_a51L-238" value="eth3" style="shape=partialRectangle;html=1;whiteSpace=wrap;connectable=0;overflow=hidden;fillColor=none;top=0;left=0;bottom=0;right=0;pointerEvents=1;" parent="KJd_LxnSjkqWvds_a51L-237" vertex="1">
                    <mxGeometry width="63" height="26" as="geometry">
                        <mxRectangle width="63" height="26" as="alternateBounds"/>
                    </mxGeometry>
                </mxCell>
                <mxCell id="KJd_LxnSjkqWvds_a51L-239" value="[99,101,107,119]" style="shape=partialRectangle;html=1;whiteSpace=wrap;connectable=0;overflow=hidden;fillColor=none;top=0;left=0;bottom=0;right=0;pointerEvents=1;align=center;spacingLeft=0;" parent="KJd_LxnSjkqWvds_a51L-237" vertex="1">
                    <mxGeometry x="63" width="102" height="26" as="geometry">
                        <mxRectangle width="102" height="26" as="alternateBounds"/>
                    </mxGeometry>
                </mxCell>
                <mxCell id="KJd_LxnSjkqWvds_a51L-240" value="&lt;div&gt;&lt;b&gt;MT&amp;nbsp;&lt;span&gt;Audience&lt;/span&gt;&lt;/b&gt;&lt;/div&gt;" style="shape=partialRectangle;html=1;whiteSpace=wrap;connectable=0;overflow=hidden;fillColor=none;top=0;left=0;bottom=0;right=0;pointerEvents=1;align=left;spacingLeft=5;" parent="KJd_LxnSjkqWvds_a51L-237" vertex="1">
                    <mxGeometry x="165" width="170" height="26" as="geometry">
                        <mxRectangle width="170" height="26" as="alternateBounds"/>
                    </mxGeometry>
                </mxCell>
                <mxCell id="KJd_LxnSjkqWvds_a51L-241" value="" style="shape=partialRectangle;collapsible=0;dropTarget=0;pointerEvents=0;fillColor=none;top=0;left=0;bottom=0;right=0;points=[[0,0.5],[1,0.5]];portConstraint=eastwest;" parent="KJd_LxnSjkqWvds_a51L-224" vertex="1">
                    <mxGeometry y="132" width="335" height="26" as="geometry"/>
                </mxCell>
                <mxCell id="KJd_LxnSjkqWvds_a51L-242" value="eth4" style="shape=partialRectangle;html=1;whiteSpace=wrap;connectable=0;overflow=hidden;fillColor=none;top=0;left=0;bottom=0;right=0;pointerEvents=1;" parent="KJd_LxnSjkqWvds_a51L-241" vertex="1">
                    <mxGeometry width="63" height="26" as="geometry">
                        <mxRectangle width="63" height="26" as="alternateBounds"/>
                    </mxGeometry>
                </mxCell>
                <mxCell id="KJd_LxnSjkqWvds_a51L-243" value="[99,101,107,119]" style="shape=partialRectangle;html=1;whiteSpace=wrap;connectable=0;overflow=hidden;fillColor=none;top=0;left=0;bottom=0;right=0;pointerEvents=1;align=center;spacingLeft=0;" parent="KJd_LxnSjkqWvds_a51L-241" vertex="1">
                    <mxGeometry x="63" width="102" height="26" as="geometry">
                        <mxRectangle width="102" height="26" as="alternateBounds"/>
                    </mxGeometry>
                </mxCell>
                <mxCell id="KJd_LxnSjkqWvds_a51L-244" value="&lt;b&gt;MT wAP AC&lt;/b&gt;" style="shape=partialRectangle;html=1;whiteSpace=wrap;connectable=0;overflow=hidden;fillColor=none;top=0;left=0;bottom=0;right=0;pointerEvents=1;align=left;spacingLeft=5;" parent="KJd_LxnSjkqWvds_a51L-241" vertex="1">
                    <mxGeometry x="165" width="170" height="26" as="geometry">
                        <mxRectangle width="170" height="26" as="alternateBounds"/>
                    </mxGeometry>
                </mxCell>
                <mxCell id="KJd_LxnSjkqWvds_a51L-245" value="" style="shape=partialRectangle;collapsible=0;dropTarget=0;pointerEvents=0;fillColor=none;top=0;left=0;bottom=0;right=0;points=[[0,0.5],[1,0.5]];portConstraint=eastwest;" parent="KJd_LxnSjkqWvds_a51L-224" vertex="1">
                    <mxGeometry y="158" width="335" height="26" as="geometry"/>
                </mxCell>
                <mxCell id="KJd_LxnSjkqWvds_a51L-246" value="eth5" style="shape=partialRectangle;html=1;whiteSpace=wrap;connectable=0;overflow=hidden;fillColor=none;top=0;left=0;bottom=0;right=0;pointerEvents=1;" parent="KJd_LxnSjkqWvds_a51L-245" vertex="1">
                    <mxGeometry width="63" height="26" as="geometry">
                        <mxRectangle width="63" height="26" as="alternateBounds"/>
                    </mxGeometry>
                </mxCell>
                <mxCell id="KJd_LxnSjkqWvds_a51L-247" value="" style="shape=partialRectangle;html=1;whiteSpace=wrap;connectable=0;overflow=hidden;fillColor=none;top=0;left=0;bottom=0;right=0;pointerEvents=1;align=center;spacingLeft=0;" parent="KJd_LxnSjkqWvds_a51L-245" vertex="1">
                    <mxGeometry x="63" width="102" height="26" as="geometry">
                        <mxRectangle width="102" height="26" as="alternateBounds"/>
                    </mxGeometry>
                </mxCell>
                <mxCell id="KJd_LxnSjkqWvds_a51L-248" value="" style="shape=partialRectangle;html=1;whiteSpace=wrap;connectable=0;overflow=hidden;fillColor=none;top=0;left=0;bottom=0;right=0;pointerEvents=1;align=left;spacingLeft=5;" parent="KJd_LxnSjkqWvds_a51L-245" vertex="1">
                    <mxGeometry x="165" width="170" height="26" as="geometry">
                        <mxRectangle width="170" height="26" as="alternateBounds"/>
                    </mxGeometry>
                </mxCell>
                <mxCell id="KJd_LxnSjkqWvds_a51L-249" value="" style="shape=partialRectangle;collapsible=0;dropTarget=0;pointerEvents=0;fillColor=none;top=0;left=0;bottom=0;right=0;points=[[0,0.5],[1,0.5]];portConstraint=eastwest;" parent="KJd_LxnSjkqWvds_a51L-224" vertex="1">
                    <mxGeometry y="184" width="335" height="26" as="geometry"/>
                </mxCell>
                <mxCell id="KJd_LxnSjkqWvds_a51L-250" value="eth6" style="shape=partialRectangle;html=1;whiteSpace=wrap;connectable=0;overflow=hidden;fillColor=none;top=0;left=0;bottom=0;right=0;pointerEvents=1;" parent="KJd_LxnSjkqWvds_a51L-249" vertex="1">
                    <mxGeometry width="63" height="26" as="geometry">
                        <mxRectangle width="63" height="26" as="alternateBounds"/>
                    </mxGeometry>
                </mxCell>
                <mxCell id="KJd_LxnSjkqWvds_a51L-251" value="" style="shape=partialRectangle;html=1;whiteSpace=wrap;connectable=0;overflow=hidden;fillColor=none;top=0;left=0;bottom=0;right=0;pointerEvents=1;align=center;spacingLeft=0;" parent="KJd_LxnSjkqWvds_a51L-249" vertex="1">
                    <mxGeometry x="63" width="102" height="26" as="geometry">
                        <mxRectangle width="102" height="26" as="alternateBounds"/>
                    </mxGeometry>
                </mxCell>
                <mxCell id="KJd_LxnSjkqWvds_a51L-252" value="" style="shape=partialRectangle;html=1;whiteSpace=wrap;connectable=0;overflow=hidden;fillColor=none;top=0;left=0;bottom=0;right=0;pointerEvents=1;align=left;spacingLeft=5;" parent="KJd_LxnSjkqWvds_a51L-249" vertex="1">
                    <mxGeometry x="165" width="170" height="26" as="geometry">
                        <mxRectangle width="170" height="26" as="alternateBounds"/>
                    </mxGeometry>
                </mxCell>
                <mxCell id="KJd_LxnSjkqWvds_a51L-253" value="" style="shape=partialRectangle;collapsible=0;dropTarget=0;pointerEvents=0;fillColor=none;top=0;left=0;bottom=0;right=0;points=[[0,0.5],[1,0.5]];portConstraint=eastwest;" parent="KJd_LxnSjkqWvds_a51L-224" vertex="1">
                    <mxGeometry y="210" width="335" height="26" as="geometry"/>
                </mxCell>
                <mxCell id="KJd_LxnSjkqWvds_a51L-254" value="eth7" style="shape=partialRectangle;html=1;whiteSpace=wrap;connectable=0;overflow=hidden;fillColor=none;top=0;left=0;bottom=0;right=0;pointerEvents=1;" parent="KJd_LxnSjkqWvds_a51L-253" vertex="1">
                    <mxGeometry width="63" height="26" as="geometry">
                        <mxRectangle width="63" height="26" as="alternateBounds"/>
                    </mxGeometry>
                </mxCell>
                <mxCell id="KJd_LxnSjkqWvds_a51L-255" value="" style="shape=partialRectangle;html=1;whiteSpace=wrap;connectable=0;overflow=hidden;fillColor=none;top=0;left=0;bottom=0;right=0;pointerEvents=1;align=center;spacingLeft=0;" parent="KJd_LxnSjkqWvds_a51L-253" vertex="1">
                    <mxGeometry x="63" width="102" height="26" as="geometry">
                        <mxRectangle width="102" height="26" as="alternateBounds"/>
                    </mxGeometry>
                </mxCell>
                <mxCell id="KJd_LxnSjkqWvds_a51L-256" value="" style="shape=partialRectangle;html=1;whiteSpace=wrap;connectable=0;overflow=hidden;fillColor=none;top=0;left=0;bottom=0;right=0;pointerEvents=1;align=left;spacingLeft=5;" parent="KJd_LxnSjkqWvds_a51L-253" vertex="1">
                    <mxGeometry x="165" width="170" height="26" as="geometry">
                        <mxRectangle width="170" height="26" as="alternateBounds"/>
                    </mxGeometry>
                </mxCell>
                <mxCell id="KJd_LxnSjkqWvds_a51L-257" value="" style="shape=partialRectangle;collapsible=0;dropTarget=0;pointerEvents=0;fillColor=none;top=0;left=0;bottom=0;right=0;points=[[0,0.5],[1,0.5]];portConstraint=eastwest;" parent="KJd_LxnSjkqWvds_a51L-224" vertex="1">
                    <mxGeometry y="236" width="335" height="26" as="geometry"/>
                </mxCell>
                <mxCell id="KJd_LxnSjkqWvds_a51L-258" value="eth8" style="shape=partialRectangle;html=1;whiteSpace=wrap;connectable=0;overflow=hidden;fillColor=none;top=0;left=0;bottom=0;right=0;pointerEvents=1;" parent="KJd_LxnSjkqWvds_a51L-257" vertex="1">
                    <mxGeometry width="63" height="26" as="geometry">
                        <mxRectangle width="63" height="26" as="alternateBounds"/>
                    </mxGeometry>
                </mxCell>
                <mxCell id="KJd_LxnSjkqWvds_a51L-259" value="" style="shape=partialRectangle;html=1;whiteSpace=wrap;connectable=0;overflow=hidden;fillColor=none;top=0;left=0;bottom=0;right=0;pointerEvents=1;align=center;spacingLeft=0;" parent="KJd_LxnSjkqWvds_a51L-257" vertex="1">
                    <mxGeometry x="63" width="102" height="26" as="geometry">
                        <mxRectangle width="102" height="26" as="alternateBounds"/>
                    </mxGeometry>
                </mxCell>
                <mxCell id="KJd_LxnSjkqWvds_a51L-260" value="" style="shape=partialRectangle;html=1;whiteSpace=wrap;connectable=0;overflow=hidden;fillColor=none;top=0;left=0;bottom=0;right=0;pointerEvents=1;align=left;spacingLeft=5;" parent="KJd_LxnSjkqWvds_a51L-257" vertex="1">
                    <mxGeometry x="165" width="170" height="26" as="geometry">
                        <mxRectangle width="170" height="26" as="alternateBounds"/>
                    </mxGeometry>
                </mxCell>
                <mxCell id="KJd_LxnSjkqWvds_a51L-261" style="shape=partialRectangle;collapsible=0;dropTarget=0;pointerEvents=0;fillColor=none;top=0;left=0;bottom=0;right=0;points=[[0,0.5],[1,0.5]];portConstraint=eastwest;" parent="KJd_LxnSjkqWvds_a51L-224" vertex="1">
                    <mxGeometry y="262" width="335" height="26" as="geometry"/>
                </mxCell>
                <mxCell id="KJd_LxnSjkqWvds_a51L-262" value="eth9" style="shape=partialRectangle;html=1;whiteSpace=wrap;connectable=0;overflow=hidden;fillColor=none;top=0;left=0;bottom=0;right=0;pointerEvents=1;" parent="KJd_LxnSjkqWvds_a51L-261" vertex="1">
                    <mxGeometry width="63" height="26" as="geometry">
                        <mxRectangle width="63" height="26" as="alternateBounds"/>
                    </mxGeometry>
                </mxCell>
                <mxCell id="KJd_LxnSjkqWvds_a51L-263" value="119" style="shape=partialRectangle;html=1;whiteSpace=wrap;connectable=0;overflow=hidden;fillColor=none;top=0;left=0;bottom=0;right=0;pointerEvents=1;align=center;spacingLeft=0;" parent="KJd_LxnSjkqWvds_a51L-261" vertex="1">
                    <mxGeometry x="63" width="102" height="26" as="geometry">
                        <mxRectangle width="102" height="26" as="alternateBounds"/>
                    </mxGeometry>
                </mxCell>
                <mxCell id="KJd_LxnSjkqWvds_a51L-264" value="&lt;div&gt;Dahua&amp;nbsp;&lt;span&gt;IPC-T5442T-ZE&lt;/span&gt;&lt;/div&gt;" style="shape=partialRectangle;html=1;whiteSpace=wrap;connectable=0;overflow=hidden;fillColor=none;top=0;left=0;bottom=0;right=0;pointerEvents=1;align=left;spacingLeft=5;" parent="KJd_LxnSjkqWvds_a51L-261" vertex="1">
                    <mxGeometry x="165" width="170" height="26" as="geometry">
                        <mxRectangle width="170" height="26" as="alternateBounds"/>
                    </mxGeometry>
                </mxCell>
                <mxCell id="KJd_LxnSjkqWvds_a51L-265" style="shape=partialRectangle;collapsible=0;dropTarget=0;pointerEvents=0;fillColor=none;top=0;left=0;bottom=0;right=0;points=[[0,0.5],[1,0.5]];portConstraint=eastwest;" parent="KJd_LxnSjkqWvds_a51L-224" vertex="1">
                    <mxGeometry y="288" width="335" height="26" as="geometry"/>
                </mxCell>
                <mxCell id="KJd_LxnSjkqWvds_a51L-266" value="eth10" style="shape=partialRectangle;html=1;whiteSpace=wrap;connectable=0;overflow=hidden;fillColor=none;top=0;left=0;bottom=0;right=0;pointerEvents=1;" parent="KJd_LxnSjkqWvds_a51L-265" vertex="1">
                    <mxGeometry width="63" height="26" as="geometry">
                        <mxRectangle width="63" height="26" as="alternateBounds"/>
                    </mxGeometry>
                </mxCell>
                <mxCell id="KJd_LxnSjkqWvds_a51L-267" value="" style="shape=partialRectangle;html=1;whiteSpace=wrap;connectable=0;overflow=hidden;fillColor=none;top=0;left=0;bottom=0;right=0;pointerEvents=1;align=center;spacingLeft=0;" parent="KJd_LxnSjkqWvds_a51L-265" vertex="1">
                    <mxGeometry x="63" width="102" height="26" as="geometry">
                        <mxRectangle width="102" height="26" as="alternateBounds"/>
                    </mxGeometry>
                </mxCell>
                <mxCell id="KJd_LxnSjkqWvds_a51L-268" style="shape=partialRectangle;html=1;whiteSpace=wrap;connectable=0;overflow=hidden;fillColor=none;top=0;left=0;bottom=0;right=0;pointerEvents=1;align=left;spacingLeft=5;" parent="KJd_LxnSjkqWvds_a51L-265" vertex="1">
                    <mxGeometry x="165" width="170" height="26" as="geometry">
                        <mxRectangle width="170" height="26" as="alternateBounds"/>
                    </mxGeometry>
                </mxCell>
                <mxCell id="KJd_LxnSjkqWvds_a51L-269" style="shape=partialRectangle;collapsible=0;dropTarget=0;pointerEvents=0;fillColor=none;top=0;left=0;bottom=0;right=0;points=[[0,0.5],[1,0.5]];portConstraint=eastwest;" parent="KJd_LxnSjkqWvds_a51L-224" vertex="1">
                    <mxGeometry y="314" width="335" height="26" as="geometry"/>
                </mxCell>
                <mxCell id="KJd_LxnSjkqWvds_a51L-270" value="eth11" style="shape=partialRectangle;html=1;whiteSpace=wrap;connectable=0;overflow=hidden;fillColor=none;top=0;left=0;bottom=0;right=0;pointerEvents=1;" parent="KJd_LxnSjkqWvds_a51L-269" vertex="1">
                    <mxGeometry width="63" height="26" as="geometry">
                        <mxRectangle width="63" height="26" as="alternateBounds"/>
                    </mxGeometry>
                </mxCell>
                <mxCell id="KJd_LxnSjkqWvds_a51L-271" value="" style="shape=partialRectangle;html=1;whiteSpace=wrap;connectable=0;overflow=hidden;fillColor=none;top=0;left=0;bottom=0;right=0;pointerEvents=1;align=center;spacingLeft=0;" parent="KJd_LxnSjkqWvds_a51L-269" vertex="1">
                    <mxGeometry x="63" width="102" height="26" as="geometry">
                        <mxRectangle width="102" height="26" as="alternateBounds"/>
                    </mxGeometry>
                </mxCell>
                <mxCell id="KJd_LxnSjkqWvds_a51L-272" style="shape=partialRectangle;html=1;whiteSpace=wrap;connectable=0;overflow=hidden;fillColor=none;top=0;left=0;bottom=0;right=0;pointerEvents=1;align=left;spacingLeft=5;" parent="KJd_LxnSjkqWvds_a51L-269" vertex="1">
                    <mxGeometry x="165" width="170" height="26" as="geometry">
                        <mxRectangle width="170" height="26" as="alternateBounds"/>
                    </mxGeometry>
                </mxCell>
                <mxCell id="KJd_LxnSjkqWvds_a51L-273" style="shape=partialRectangle;collapsible=0;dropTarget=0;pointerEvents=0;fillColor=none;top=0;left=0;bottom=0;right=0;points=[[0,0.5],[1,0.5]];portConstraint=eastwest;" parent="KJd_LxnSjkqWvds_a51L-224" vertex="1">
                    <mxGeometry y="340" width="335" height="26" as="geometry"/>
                </mxCell>
                <mxCell id="KJd_LxnSjkqWvds_a51L-274" value="eth12" style="shape=partialRectangle;html=1;whiteSpace=wrap;connectable=0;overflow=hidden;fillColor=none;top=0;left=0;bottom=0;right=0;pointerEvents=1;" parent="KJd_LxnSjkqWvds_a51L-273" vertex="1">
                    <mxGeometry width="63" height="26" as="geometry">
                        <mxRectangle width="63" height="26" as="alternateBounds"/>
                    </mxGeometry>
                </mxCell>
                <mxCell id="KJd_LxnSjkqWvds_a51L-275" value="" style="shape=partialRectangle;html=1;whiteSpace=wrap;connectable=0;overflow=hidden;fillColor=none;top=0;left=0;bottom=0;right=0;pointerEvents=1;align=center;spacingLeft=0;" parent="KJd_LxnSjkqWvds_a51L-273" vertex="1">
                    <mxGeometry x="63" width="102" height="26" as="geometry">
                        <mxRectangle width="102" height="26" as="alternateBounds"/>
                    </mxGeometry>
                </mxCell>
                <mxCell id="KJd_LxnSjkqWvds_a51L-276" style="shape=partialRectangle;html=1;whiteSpace=wrap;connectable=0;overflow=hidden;fillColor=none;top=0;left=0;bottom=0;right=0;pointerEvents=1;align=left;spacingLeft=5;" parent="KJd_LxnSjkqWvds_a51L-273" vertex="1">
                    <mxGeometry x="165" width="170" height="26" as="geometry">
                        <mxRectangle width="170" height="26" as="alternateBounds"/>
                    </mxGeometry>
                </mxCell>
                <mxCell id="KJd_LxnSjkqWvds_a51L-277" style="shape=partialRectangle;collapsible=0;dropTarget=0;pointerEvents=0;fillColor=none;top=0;left=0;bottom=0;right=0;points=[[0,0.5],[1,0.5]];portConstraint=eastwest;" parent="KJd_LxnSjkqWvds_a51L-224" vertex="1">
                    <mxGeometry y="366" width="335" height="26" as="geometry"/>
                </mxCell>
                <mxCell id="KJd_LxnSjkqWvds_a51L-278" value="eth13" style="shape=partialRectangle;html=1;whiteSpace=wrap;connectable=0;overflow=hidden;fillColor=none;top=0;left=0;bottom=0;right=0;pointerEvents=1;" parent="KJd_LxnSjkqWvds_a51L-277" vertex="1">
                    <mxGeometry width="63" height="26" as="geometry">
                        <mxRectangle width="63" height="26" as="alternateBounds"/>
                    </mxGeometry>
                </mxCell>
                <mxCell id="KJd_LxnSjkqWvds_a51L-279" style="shape=partialRectangle;html=1;whiteSpace=wrap;connectable=0;overflow=hidden;fillColor=none;top=0;left=0;bottom=0;right=0;pointerEvents=1;align=center;spacingLeft=0;" parent="KJd_LxnSjkqWvds_a51L-277" vertex="1">
                    <mxGeometry x="63" width="102" height="26" as="geometry">
                        <mxRectangle width="102" height="26" as="alternateBounds"/>
                    </mxGeometry>
                </mxCell>
                <mxCell id="KJd_LxnSjkqWvds_a51L-280" style="shape=partialRectangle;html=1;whiteSpace=wrap;connectable=0;overflow=hidden;fillColor=none;top=0;left=0;bottom=0;right=0;pointerEvents=1;align=left;spacingLeft=5;" parent="KJd_LxnSjkqWvds_a51L-277" vertex="1">
                    <mxGeometry x="165" width="170" height="26" as="geometry">
                        <mxRectangle width="170" height="26" as="alternateBounds"/>
                    </mxGeometry>
                </mxCell>
                <mxCell id="KJd_LxnSjkqWvds_a51L-281" style="shape=partialRectangle;collapsible=0;dropTarget=0;pointerEvents=0;fillColor=none;top=0;left=0;bottom=0;right=0;points=[[0,0.5],[1,0.5]];portConstraint=eastwest;" parent="KJd_LxnSjkqWvds_a51L-224" vertex="1">
                    <mxGeometry y="392" width="335" height="26" as="geometry"/>
                </mxCell>
                <mxCell id="KJd_LxnSjkqWvds_a51L-282" value="eth14" style="shape=partialRectangle;html=1;whiteSpace=wrap;connectable=0;overflow=hidden;fillColor=none;top=0;left=0;bottom=0;right=0;pointerEvents=1;" parent="KJd_LxnSjkqWvds_a51L-281" vertex="1">
                    <mxGeometry width="63" height="26" as="geometry">
                        <mxRectangle width="63" height="26" as="alternateBounds"/>
                    </mxGeometry>
                </mxCell>
                <mxCell id="KJd_LxnSjkqWvds_a51L-283" style="shape=partialRectangle;html=1;whiteSpace=wrap;connectable=0;overflow=hidden;fillColor=none;top=0;left=0;bottom=0;right=0;pointerEvents=1;align=center;spacingLeft=0;" parent="KJd_LxnSjkqWvds_a51L-281" vertex="1">
                    <mxGeometry x="63" width="102" height="26" as="geometry">
                        <mxRectangle width="102" height="26" as="alternateBounds"/>
                    </mxGeometry>
                </mxCell>
                <mxCell id="KJd_LxnSjkqWvds_a51L-284" style="shape=partialRectangle;html=1;whiteSpace=wrap;connectable=0;overflow=hidden;fillColor=none;top=0;left=0;bottom=0;right=0;pointerEvents=1;align=left;spacingLeft=5;" parent="KJd_LxnSjkqWvds_a51L-281" vertex="1">
                    <mxGeometry x="165" width="170" height="26" as="geometry">
                        <mxRectangle width="170" height="26" as="alternateBounds"/>
                    </mxGeometry>
                </mxCell>
                <mxCell id="KJd_LxnSjkqWvds_a51L-285" style="shape=partialRectangle;collapsible=0;dropTarget=0;pointerEvents=0;fillColor=none;top=0;left=0;bottom=0;right=0;points=[[0,0.5],[1,0.5]];portConstraint=eastwest;" parent="KJd_LxnSjkqWvds_a51L-224" vertex="1">
                    <mxGeometry y="418" width="335" height="26" as="geometry"/>
                </mxCell>
                <mxCell id="KJd_LxnSjkqWvds_a51L-286" value="eth15" style="shape=partialRectangle;html=1;whiteSpace=wrap;connectable=0;overflow=hidden;fillColor=none;top=0;left=0;bottom=0;right=0;pointerEvents=1;" parent="KJd_LxnSjkqWvds_a51L-285" vertex="1">
                    <mxGeometry width="63" height="26" as="geometry">
                        <mxRectangle width="63" height="26" as="alternateBounds"/>
                    </mxGeometry>
                </mxCell>
                <mxCell id="KJd_LxnSjkqWvds_a51L-287" style="shape=partialRectangle;html=1;whiteSpace=wrap;connectable=0;overflow=hidden;fillColor=none;top=0;left=0;bottom=0;right=0;pointerEvents=1;align=center;spacingLeft=0;" parent="KJd_LxnSjkqWvds_a51L-285" vertex="1">
                    <mxGeometry x="63" width="102" height="26" as="geometry">
                        <mxRectangle width="102" height="26" as="alternateBounds"/>
                    </mxGeometry>
                </mxCell>
                <mxCell id="KJd_LxnSjkqWvds_a51L-288" style="shape=partialRectangle;html=1;whiteSpace=wrap;connectable=0;overflow=hidden;fillColor=none;top=0;left=0;bottom=0;right=0;pointerEvents=1;align=left;spacingLeft=5;" parent="KJd_LxnSjkqWvds_a51L-285" vertex="1">
                    <mxGeometry x="165" width="170" height="26" as="geometry">
                        <mxRectangle width="170" height="26" as="alternateBounds"/>
                    </mxGeometry>
                </mxCell>
                <mxCell id="KJd_LxnSjkqWvds_a51L-289" style="shape=partialRectangle;collapsible=0;dropTarget=0;pointerEvents=0;fillColor=none;top=0;left=0;bottom=0;right=0;points=[[0,0.5],[1,0.5]];portConstraint=eastwest;" parent="KJd_LxnSjkqWvds_a51L-224" vertex="1">
                    <mxGeometry y="444" width="335" height="26" as="geometry"/>
                </mxCell>
                <mxCell id="KJd_LxnSjkqWvds_a51L-290" value="eth16" style="shape=partialRectangle;html=1;whiteSpace=wrap;connectable=0;overflow=hidden;fillColor=none;top=0;left=0;bottom=0;right=0;pointerEvents=1;" parent="KJd_LxnSjkqWvds_a51L-289" vertex="1">
                    <mxGeometry width="63" height="26" as="geometry">
                        <mxRectangle width="63" height="26" as="alternateBounds"/>
                    </mxGeometry>
                </mxCell>
                <mxCell id="KJd_LxnSjkqWvds_a51L-291" style="shape=partialRectangle;html=1;whiteSpace=wrap;connectable=0;overflow=hidden;fillColor=none;top=0;left=0;bottom=0;right=0;pointerEvents=1;align=center;spacingLeft=0;" parent="KJd_LxnSjkqWvds_a51L-289" vertex="1">
                    <mxGeometry x="63" width="102" height="26" as="geometry">
                        <mxRectangle width="102" height="26" as="alternateBounds"/>
                    </mxGeometry>
                </mxCell>
                <mxCell id="KJd_LxnSjkqWvds_a51L-292" style="shape=partialRectangle;html=1;whiteSpace=wrap;connectable=0;overflow=hidden;fillColor=none;top=0;left=0;bottom=0;right=0;pointerEvents=1;align=left;spacingLeft=5;" parent="KJd_LxnSjkqWvds_a51L-289" vertex="1">
                    <mxGeometry x="165" width="170" height="26" as="geometry">
                        <mxRectangle width="170" height="26" as="alternateBounds"/>
                    </mxGeometry>
                </mxCell>
                <mxCell id="KJd_LxnSjkqWvds_a51L-293" style="shape=partialRectangle;collapsible=0;dropTarget=0;pointerEvents=0;fillColor=none;top=0;left=0;bottom=0;right=0;points=[[0,0.5],[1,0.5]];portConstraint=eastwest;" parent="KJd_LxnSjkqWvds_a51L-224" vertex="1">
                    <mxGeometry y="470" width="335" height="26" as="geometry"/>
                </mxCell>
                <mxCell id="KJd_LxnSjkqWvds_a51L-294" value="eth17" style="shape=partialRectangle;html=1;whiteSpace=wrap;connectable=0;overflow=hidden;fillColor=none;top=0;left=0;bottom=0;right=0;pointerEvents=1;" parent="KJd_LxnSjkqWvds_a51L-293" vertex="1">
                    <mxGeometry width="63" height="26" as="geometry">
                        <mxRectangle width="63" height="26" as="alternateBounds"/>
                    </mxGeometry>
                </mxCell>
                <mxCell id="KJd_LxnSjkqWvds_a51L-295" style="shape=partialRectangle;html=1;whiteSpace=wrap;connectable=0;overflow=hidden;fillColor=none;top=0;left=0;bottom=0;right=0;pointerEvents=1;align=center;spacingLeft=0;" parent="KJd_LxnSjkqWvds_a51L-293" vertex="1">
                    <mxGeometry x="63" width="102" height="26" as="geometry">
                        <mxRectangle width="102" height="26" as="alternateBounds"/>
                    </mxGeometry>
                </mxCell>
                <mxCell id="KJd_LxnSjkqWvds_a51L-296" style="shape=partialRectangle;html=1;whiteSpace=wrap;connectable=0;overflow=hidden;fillColor=none;top=0;left=0;bottom=0;right=0;pointerEvents=1;align=left;spacingLeft=5;" parent="KJd_LxnSjkqWvds_a51L-293" vertex="1">
                    <mxGeometry x="165" width="170" height="26" as="geometry">
                        <mxRectangle width="170" height="26" as="alternateBounds"/>
                    </mxGeometry>
                </mxCell>
                <mxCell id="KJd_LxnSjkqWvds_a51L-297" style="shape=partialRectangle;collapsible=0;dropTarget=0;pointerEvents=0;fillColor=none;top=0;left=0;bottom=0;right=0;points=[[0,0.5],[1,0.5]];portConstraint=eastwest;" parent="KJd_LxnSjkqWvds_a51L-224" vertex="1">
                    <mxGeometry y="496" width="335" height="26" as="geometry"/>
                </mxCell>
                <mxCell id="KJd_LxnSjkqWvds_a51L-298" value="eth18" style="shape=partialRectangle;html=1;whiteSpace=wrap;connectable=0;overflow=hidden;fillColor=none;top=0;left=0;bottom=0;right=0;pointerEvents=1;" parent="KJd_LxnSjkqWvds_a51L-297" vertex="1">
                    <mxGeometry width="63" height="26" as="geometry">
                        <mxRectangle width="63" height="26" as="alternateBounds"/>
                    </mxGeometry>
                </mxCell>
                <mxCell id="KJd_LxnSjkqWvds_a51L-299" style="shape=partialRectangle;html=1;whiteSpace=wrap;connectable=0;overflow=hidden;fillColor=none;top=0;left=0;bottom=0;right=0;pointerEvents=1;align=center;spacingLeft=0;" parent="KJd_LxnSjkqWvds_a51L-297" vertex="1">
                    <mxGeometry x="63" width="102" height="26" as="geometry">
                        <mxRectangle width="102" height="26" as="alternateBounds"/>
                    </mxGeometry>
                </mxCell>
                <mxCell id="KJd_LxnSjkqWvds_a51L-300" style="shape=partialRectangle;html=1;whiteSpace=wrap;connectable=0;overflow=hidden;fillColor=none;top=0;left=0;bottom=0;right=0;pointerEvents=1;align=left;spacingLeft=5;" parent="KJd_LxnSjkqWvds_a51L-297" vertex="1">
                    <mxGeometry x="165" width="170" height="26" as="geometry">
                        <mxRectangle width="170" height="26" as="alternateBounds"/>
                    </mxGeometry>
                </mxCell>
                <mxCell id="KJd_LxnSjkqWvds_a51L-301" style="shape=partialRectangle;collapsible=0;dropTarget=0;pointerEvents=0;fillColor=none;top=0;left=0;bottom=0;right=0;points=[[0,0.5],[1,0.5]];portConstraint=eastwest;" parent="KJd_LxnSjkqWvds_a51L-224" vertex="1">
                    <mxGeometry y="522" width="335" height="26" as="geometry"/>
                </mxCell>
                <mxCell id="KJd_LxnSjkqWvds_a51L-302" value="eth19" style="shape=partialRectangle;html=1;whiteSpace=wrap;connectable=0;overflow=hidden;fillColor=none;top=0;left=0;bottom=0;right=0;pointerEvents=1;" parent="KJd_LxnSjkqWvds_a51L-301" vertex="1">
                    <mxGeometry width="63" height="26" as="geometry">
                        <mxRectangle width="63" height="26" as="alternateBounds"/>
                    </mxGeometry>
                </mxCell>
                <mxCell id="KJd_LxnSjkqWvds_a51L-303" style="shape=partialRectangle;html=1;whiteSpace=wrap;connectable=0;overflow=hidden;fillColor=none;top=0;left=0;bottom=0;right=0;pointerEvents=1;align=center;spacingLeft=0;" parent="KJd_LxnSjkqWvds_a51L-301" vertex="1">
                    <mxGeometry x="63" width="102" height="26" as="geometry">
                        <mxRectangle width="102" height="26" as="alternateBounds"/>
                    </mxGeometry>
                </mxCell>
                <mxCell id="KJd_LxnSjkqWvds_a51L-304" style="shape=partialRectangle;html=1;whiteSpace=wrap;connectable=0;overflow=hidden;fillColor=none;top=0;left=0;bottom=0;right=0;pointerEvents=1;align=left;spacingLeft=5;" parent="KJd_LxnSjkqWvds_a51L-301" vertex="1">
                    <mxGeometry x="165" width="170" height="26" as="geometry">
                        <mxRectangle width="170" height="26" as="alternateBounds"/>
                    </mxGeometry>
                </mxCell>
                <mxCell id="KJd_LxnSjkqWvds_a51L-305" style="shape=partialRectangle;collapsible=0;dropTarget=0;pointerEvents=0;fillColor=none;top=0;left=0;bottom=0;right=0;points=[[0,0.5],[1,0.5]];portConstraint=eastwest;" parent="KJd_LxnSjkqWvds_a51L-224" vertex="1">
                    <mxGeometry y="548" width="335" height="26" as="geometry"/>
                </mxCell>
                <mxCell id="KJd_LxnSjkqWvds_a51L-306" value="eth20" style="shape=partialRectangle;html=1;whiteSpace=wrap;connectable=0;overflow=hidden;fillColor=none;top=0;left=0;bottom=0;right=0;pointerEvents=1;" parent="KJd_LxnSjkqWvds_a51L-305" vertex="1">
                    <mxGeometry width="63" height="26" as="geometry">
                        <mxRectangle width="63" height="26" as="alternateBounds"/>
                    </mxGeometry>
                </mxCell>
                <mxCell id="KJd_LxnSjkqWvds_a51L-307" style="shape=partialRectangle;html=1;whiteSpace=wrap;connectable=0;overflow=hidden;fillColor=none;top=0;left=0;bottom=0;right=0;pointerEvents=1;align=center;spacingLeft=0;" parent="KJd_LxnSjkqWvds_a51L-305" vertex="1">
                    <mxGeometry x="63" width="102" height="26" as="geometry">
                        <mxRectangle width="102" height="26" as="alternateBounds"/>
                    </mxGeometry>
                </mxCell>
                <mxCell id="KJd_LxnSjkqWvds_a51L-308" style="shape=partialRectangle;html=1;whiteSpace=wrap;connectable=0;overflow=hidden;fillColor=none;top=0;left=0;bottom=0;right=0;pointerEvents=1;align=left;spacingLeft=5;" parent="KJd_LxnSjkqWvds_a51L-305" vertex="1">
                    <mxGeometry x="165" width="170" height="26" as="geometry">
                        <mxRectangle width="170" height="26" as="alternateBounds"/>
                    </mxGeometry>
                </mxCell>
                <mxCell id="KJd_LxnSjkqWvds_a51L-309" style="shape=partialRectangle;collapsible=0;dropTarget=0;pointerEvents=0;fillColor=none;top=0;left=0;bottom=0;right=0;points=[[0,0.5],[1,0.5]];portConstraint=eastwest;" parent="KJd_LxnSjkqWvds_a51L-224" vertex="1">
                    <mxGeometry y="574" width="335" height="26" as="geometry"/>
                </mxCell>
                <mxCell id="KJd_LxnSjkqWvds_a51L-310" value="eth21" style="shape=partialRectangle;html=1;whiteSpace=wrap;connectable=0;overflow=hidden;fillColor=none;top=0;left=0;bottom=0;right=0;pointerEvents=1;" parent="KJd_LxnSjkqWvds_a51L-309" vertex="1">
                    <mxGeometry width="63" height="26" as="geometry">
                        <mxRectangle width="63" height="26" as="alternateBounds"/>
                    </mxGeometry>
                </mxCell>
                <mxCell id="KJd_LxnSjkqWvds_a51L-311" style="shape=partialRectangle;html=1;whiteSpace=wrap;connectable=0;overflow=hidden;fillColor=none;top=0;left=0;bottom=0;right=0;pointerEvents=1;align=center;spacingLeft=0;" parent="KJd_LxnSjkqWvds_a51L-309" vertex="1">
                    <mxGeometry x="63" width="102" height="26" as="geometry">
                        <mxRectangle width="102" height="26" as="alternateBounds"/>
                    </mxGeometry>
                </mxCell>
                <mxCell id="KJd_LxnSjkqWvds_a51L-312" style="shape=partialRectangle;html=1;whiteSpace=wrap;connectable=0;overflow=hidden;fillColor=none;top=0;left=0;bottom=0;right=0;pointerEvents=1;align=left;spacingLeft=5;" parent="KJd_LxnSjkqWvds_a51L-309" vertex="1">
                    <mxGeometry x="165" width="170" height="26" as="geometry">
                        <mxRectangle width="170" height="26" as="alternateBounds"/>
                    </mxGeometry>
                </mxCell>
                <mxCell id="KJd_LxnSjkqWvds_a51L-313" style="shape=partialRectangle;collapsible=0;dropTarget=0;pointerEvents=0;fillColor=none;top=0;left=0;bottom=0;right=0;points=[[0,0.5],[1,0.5]];portConstraint=eastwest;" parent="KJd_LxnSjkqWvds_a51L-224" vertex="1">
                    <mxGeometry y="600" width="335" height="26" as="geometry"/>
                </mxCell>
                <mxCell id="KJd_LxnSjkqWvds_a51L-314" value="eth22" style="shape=partialRectangle;html=1;whiteSpace=wrap;connectable=0;overflow=hidden;fillColor=none;top=0;left=0;bottom=0;right=0;pointerEvents=1;" parent="KJd_LxnSjkqWvds_a51L-313" vertex="1">
                    <mxGeometry width="63" height="26" as="geometry">
                        <mxRectangle width="63" height="26" as="alternateBounds"/>
                    </mxGeometry>
                </mxCell>
                <mxCell id="KJd_LxnSjkqWvds_a51L-315" style="shape=partialRectangle;html=1;whiteSpace=wrap;connectable=0;overflow=hidden;fillColor=none;top=0;left=0;bottom=0;right=0;pointerEvents=1;align=center;spacingLeft=0;" parent="KJd_LxnSjkqWvds_a51L-313" vertex="1">
                    <mxGeometry x="63" width="102" height="26" as="geometry">
                        <mxRectangle width="102" height="26" as="alternateBounds"/>
                    </mxGeometry>
                </mxCell>
                <mxCell id="KJd_LxnSjkqWvds_a51L-316" style="shape=partialRectangle;html=1;whiteSpace=wrap;connectable=0;overflow=hidden;fillColor=none;top=0;left=0;bottom=0;right=0;pointerEvents=1;align=left;spacingLeft=5;" parent="KJd_LxnSjkqWvds_a51L-313" vertex="1">
                    <mxGeometry x="165" width="170" height="26" as="geometry">
                        <mxRectangle width="170" height="26" as="alternateBounds"/>
                    </mxGeometry>
                </mxCell>
                <mxCell id="KJd_LxnSjkqWvds_a51L-317" style="shape=partialRectangle;collapsible=0;dropTarget=0;pointerEvents=0;fillColor=none;top=0;left=0;bottom=0;right=0;points=[[0,0.5],[1,0.5]];portConstraint=eastwest;" parent="KJd_LxnSjkqWvds_a51L-224" vertex="1">
                    <mxGeometry y="626" width="335" height="26" as="geometry"/>
                </mxCell>
                <mxCell id="KJd_LxnSjkqWvds_a51L-318" value="eth23" style="shape=partialRectangle;html=1;whiteSpace=wrap;connectable=0;overflow=hidden;fillColor=none;top=0;left=0;bottom=0;right=0;pointerEvents=1;" parent="KJd_LxnSjkqWvds_a51L-317" vertex="1">
                    <mxGeometry width="63" height="26" as="geometry">
                        <mxRectangle width="63" height="26" as="alternateBounds"/>
                    </mxGeometry>
                </mxCell>
                <mxCell id="KJd_LxnSjkqWvds_a51L-319" style="shape=partialRectangle;html=1;whiteSpace=wrap;connectable=0;overflow=hidden;fillColor=none;top=0;left=0;bottom=0;right=0;pointerEvents=1;align=center;spacingLeft=0;" parent="KJd_LxnSjkqWvds_a51L-317" vertex="1">
                    <mxGeometry x="63" width="102" height="26" as="geometry">
                        <mxRectangle width="102" height="26" as="alternateBounds"/>
                    </mxGeometry>
                </mxCell>
                <mxCell id="KJd_LxnSjkqWvds_a51L-320" style="shape=partialRectangle;html=1;whiteSpace=wrap;connectable=0;overflow=hidden;fillColor=none;top=0;left=0;bottom=0;right=0;pointerEvents=1;align=left;spacingLeft=5;" parent="KJd_LxnSjkqWvds_a51L-317" vertex="1">
                    <mxGeometry x="165" width="170" height="26" as="geometry">
                        <mxRectangle width="170" height="26" as="alternateBounds"/>
                    </mxGeometry>
                </mxCell>
                <mxCell id="KJd_LxnSjkqWvds_a51L-321" style="shape=partialRectangle;collapsible=0;dropTarget=0;pointerEvents=0;fillColor=none;top=0;left=0;bottom=0;right=0;points=[[0,0.5],[1,0.5]];portConstraint=eastwest;" parent="KJd_LxnSjkqWvds_a51L-224" vertex="1">
                    <mxGeometry y="652" width="335" height="26" as="geometry"/>
                </mxCell>
                <mxCell id="KJd_LxnSjkqWvds_a51L-322" value="eth24" style="shape=partialRectangle;html=1;whiteSpace=wrap;connectable=0;overflow=hidden;fillColor=none;top=0;left=0;bottom=0;right=0;pointerEvents=1;" parent="KJd_LxnSjkqWvds_a51L-321" vertex="1">
                    <mxGeometry width="63" height="26" as="geometry">
                        <mxRectangle width="63" height="26" as="alternateBounds"/>
                    </mxGeometry>
                </mxCell>
                <mxCell id="KJd_LxnSjkqWvds_a51L-323" style="shape=partialRectangle;html=1;whiteSpace=wrap;connectable=0;overflow=hidden;fillColor=none;top=0;left=0;bottom=0;right=0;pointerEvents=1;align=center;spacingLeft=0;" parent="KJd_LxnSjkqWvds_a51L-321" vertex="1">
                    <mxGeometry x="63" width="102" height="26" as="geometry">
                        <mxRectangle width="102" height="26" as="alternateBounds"/>
                    </mxGeometry>
                </mxCell>
                <mxCell id="KJd_LxnSjkqWvds_a51L-324" style="shape=partialRectangle;html=1;whiteSpace=wrap;connectable=0;overflow=hidden;fillColor=none;top=0;left=0;bottom=0;right=0;pointerEvents=1;align=left;spacingLeft=5;" parent="KJd_LxnSjkqWvds_a51L-321" vertex="1">
                    <mxGeometry x="165" width="170" height="26" as="geometry">
                        <mxRectangle width="170" height="26" as="alternateBounds"/>
                    </mxGeometry>
                </mxCell>
                <mxCell id="KJd_LxnSjkqWvds_a51L-325" style="shape=partialRectangle;collapsible=0;dropTarget=0;pointerEvents=0;fillColor=none;top=0;left=0;bottom=0;right=0;points=[[0,0.5],[1,0.5]];portConstraint=eastwest;" parent="KJd_LxnSjkqWvds_a51L-224" vertex="1">
                    <mxGeometry y="678" width="335" height="26" as="geometry"/>
                </mxCell>
                <mxCell id="KJd_LxnSjkqWvds_a51L-326" value="sfp+1" style="shape=partialRectangle;html=1;whiteSpace=wrap;connectable=0;overflow=hidden;fillColor=none;top=0;left=0;bottom=0;right=0;pointerEvents=1;" parent="KJd_LxnSjkqWvds_a51L-325" vertex="1">
                    <mxGeometry width="63" height="26" as="geometry">
                        <mxRectangle width="63" height="26" as="alternateBounds"/>
                    </mxGeometry>
                </mxCell>
                <mxCell id="KJd_LxnSjkqWvds_a51L-327" value="[99,101,107,119]" style="shape=partialRectangle;html=1;whiteSpace=wrap;connectable=0;overflow=hidden;fillColor=none;top=0;left=0;bottom=0;right=0;pointerEvents=1;align=center;spacingLeft=0;" parent="KJd_LxnSjkqWvds_a51L-325" vertex="1">
                    <mxGeometry x="63" width="102" height="26" as="geometry">
                        <mxRectangle width="102" height="26" as="alternateBounds"/>
                    </mxGeometry>
                </mxCell>
                <mxCell id="KJd_LxnSjkqWvds_a51L-328" style="shape=partialRectangle;html=1;whiteSpace=wrap;connectable=0;overflow=hidden;fillColor=none;top=0;left=0;bottom=0;right=0;pointerEvents=1;align=left;spacingLeft=5;" parent="KJd_LxnSjkqWvds_a51L-325" vertex="1">
                    <mxGeometry x="165" width="170" height="26" as="geometry">
                        <mxRectangle width="170" height="26" as="alternateBounds"/>
                    </mxGeometry>
                </mxCell>
                <mxCell id="KJd_LxnSjkqWvds_a51L-329" style="shape=partialRectangle;collapsible=0;dropTarget=0;pointerEvents=0;fillColor=none;top=0;left=0;bottom=0;right=0;points=[[0,0.5],[1,0.5]];portConstraint=eastwest;" parent="KJd_LxnSjkqWvds_a51L-224" vertex="1">
                    <mxGeometry y="704" width="335" height="26" as="geometry"/>
                </mxCell>
                <mxCell id="KJd_LxnSjkqWvds_a51L-330" value="sfp+2" style="shape=partialRectangle;html=1;whiteSpace=wrap;connectable=0;overflow=hidden;fillColor=none;top=0;left=0;bottom=0;right=0;pointerEvents=1;" parent="KJd_LxnSjkqWvds_a51L-329" vertex="1">
                    <mxGeometry width="63" height="26" as="geometry">
                        <mxRectangle width="63" height="26" as="alternateBounds"/>
                    </mxGeometry>
                </mxCell>
                <mxCell id="KJd_LxnSjkqWvds_a51L-331" value="[99,101,107,119]" style="shape=partialRectangle;html=1;whiteSpace=wrap;connectable=0;overflow=hidden;fillColor=none;top=0;left=0;bottom=0;right=0;pointerEvents=1;align=center;spacingLeft=0;" parent="KJd_LxnSjkqWvds_a51L-329" vertex="1">
                    <mxGeometry x="63" width="102" height="26" as="geometry">
                        <mxRectangle width="102" height="26" as="alternateBounds"/>
                    </mxGeometry>
                </mxCell>
                <mxCell id="KJd_LxnSjkqWvds_a51L-332" style="shape=partialRectangle;html=1;whiteSpace=wrap;connectable=0;overflow=hidden;fillColor=none;top=0;left=0;bottom=0;right=0;pointerEvents=1;align=left;spacingLeft=5;" parent="KJd_LxnSjkqWvds_a51L-329" vertex="1">
                    <mxGeometry x="165" width="170" height="26" as="geometry">
                        <mxRectangle width="170" height="26" as="alternateBounds"/>
                    </mxGeometry>
                </mxCell>
                <mxCell id="KJd_LxnSjkqWvds_a51L-337" style="shape=partialRectangle;collapsible=0;dropTarget=0;pointerEvents=0;fillColor=none;top=0;left=0;bottom=0;right=0;points=[[0,0.5],[1,0.5]];portConstraint=eastwest;" parent="KJd_LxnSjkqWvds_a51L-224" vertex="1">
                    <mxGeometry y="730" width="335" height="26" as="geometry"/>
                </mxCell>
                <mxCell id="KJd_LxnSjkqWvds_a51L-338" value="sfp+3" style="shape=partialRectangle;html=1;whiteSpace=wrap;connectable=0;overflow=hidden;fillColor=none;top=0;left=0;bottom=0;right=0;pointerEvents=1;" parent="KJd_LxnSjkqWvds_a51L-337" vertex="1">
                    <mxGeometry width="63" height="26" as="geometry">
                        <mxRectangle width="63" height="26" as="alternateBounds"/>
                    </mxGeometry>
                </mxCell>
                <mxCell id="KJd_LxnSjkqWvds_a51L-339" value="[99,101,107,119]" style="shape=partialRectangle;html=1;whiteSpace=wrap;connectable=0;overflow=hidden;fillColor=none;top=0;left=0;bottom=0;right=0;pointerEvents=1;align=center;spacingLeft=0;" parent="KJd_LxnSjkqWvds_a51L-337" vertex="1">
                    <mxGeometry x="63" width="102" height="26" as="geometry">
                        <mxRectangle width="102" height="26" as="alternateBounds"/>
                    </mxGeometry>
                </mxCell>
                <mxCell id="KJd_LxnSjkqWvds_a51L-340" style="shape=partialRectangle;html=1;whiteSpace=wrap;connectable=0;overflow=hidden;fillColor=none;top=0;left=0;bottom=0;right=0;pointerEvents=1;align=left;spacingLeft=5;" parent="KJd_LxnSjkqWvds_a51L-337" vertex="1">
                    <mxGeometry x="165" width="170" height="26" as="geometry">
                        <mxRectangle width="170" height="26" as="alternateBounds"/>
                    </mxGeometry>
                </mxCell>
                <mxCell id="KJd_LxnSjkqWvds_a51L-333" style="shape=partialRectangle;collapsible=0;dropTarget=0;pointerEvents=0;fillColor=none;top=0;left=0;bottom=0;right=0;points=[[0,0.5],[1,0.5]];portConstraint=eastwest;" parent="KJd_LxnSjkqWvds_a51L-224" vertex="1">
                    <mxGeometry y="756" width="335" height="26" as="geometry"/>
                </mxCell>
                <mxCell id="KJd_LxnSjkqWvds_a51L-334" value="sfp+4" style="shape=partialRectangle;html=1;whiteSpace=wrap;connectable=0;overflow=hidden;fillColor=none;top=0;left=0;bottom=0;right=0;pointerEvents=1;" parent="KJd_LxnSjkqWvds_a51L-333" vertex="1">
                    <mxGeometry width="63" height="26" as="geometry">
                        <mxRectangle width="63" height="26" as="alternateBounds"/>
                    </mxGeometry>
                </mxCell>
                <mxCell id="KJd_LxnSjkqWvds_a51L-335" value="[99,101,107,119]" style="shape=partialRectangle;html=1;whiteSpace=wrap;connectable=0;overflow=hidden;fillColor=none;top=0;left=0;bottom=0;right=0;pointerEvents=1;align=center;spacingLeft=0;" parent="KJd_LxnSjkqWvds_a51L-333" vertex="1">
                    <mxGeometry x="63" width="102" height="26" as="geometry">
                        <mxRectangle width="102" height="26" as="alternateBounds"/>
                    </mxGeometry>
                </mxCell>
                <mxCell id="KJd_LxnSjkqWvds_a51L-336" style="shape=partialRectangle;html=1;whiteSpace=wrap;connectable=0;overflow=hidden;fillColor=none;top=0;left=0;bottom=0;right=0;pointerEvents=1;align=left;spacingLeft=5;" parent="KJd_LxnSjkqWvds_a51L-333" vertex="1">
                    <mxGeometry x="165" width="170" height="26" as="geometry">
                        <mxRectangle width="170" height="26" as="alternateBounds"/>
                    </mxGeometry>
                </mxCell>
                <mxCell id="KJd_LxnSjkqWvds_a51L-357" value="" style="group" parent="1" vertex="1" connectable="0">
                    <mxGeometry x="1000" y="150" width="270" height="153" as="geometry"/>
                </mxCell>
                <mxCell id="KJd_LxnSjkqWvds_a51L-354" value="" style="rounded=1;whiteSpace=wrap;html=1;fontSize=11;" parent="KJd_LxnSjkqWvds_a51L-357" vertex="1">
                    <mxGeometry y="16" width="270" height="137" as="geometry"/>
                </mxCell>
                <mxCell id="KJd_LxnSjkqWvds_a51L-355" value="TP Link&lt;br&gt;TL-SG108E" style="fontColor=#0066CC;verticalAlign=top;verticalLabelPosition=bottom;labelPosition=center;align=center;html=1;outlineConnect=0;fillColor=#CCCCCC;strokeColor=#6881B3;gradientColor=none;gradientDirection=north;strokeWidth=2;shape=mxgraph.networks.switch;" parent="KJd_LxnSjkqWvds_a51L-357" vertex="1">
                    <mxGeometry x="44" y="69.5" width="100" height="30" as="geometry"/>
                </mxCell>
                <mxCell id="KJd_LxnSjkqWvds_a51L-356" value="Entertainment Center" style="text;html=1;strokeColor=none;fillColor=none;align=center;verticalAlign=middle;whiteSpace=wrap;rounded=0;fontSize=14;labelBackgroundColor=#FFFFFF;labelBorderColor=none;" parent="KJd_LxnSjkqWvds_a51L-357" vertex="1">
                    <mxGeometry x="14" width="160" height="30" as="geometry"/>
                </mxCell>
                <mxCell id="KJd_LxnSjkqWvds_a51L-408" value="SSIDs" style="shape=table;startSize=30;container=1;collapsible=0;childLayout=tableLayout;fontStyle=1;fontSize=13;" parent="1" vertex="1">
                    <mxGeometry x="750" y="797" width="220" height="154" as="geometry"/>
                </mxCell>
                <mxCell id="KJd_LxnSjkqWvds_a51L-409" value="" style="shape=partialRectangle;collapsible=0;dropTarget=0;pointerEvents=0;fillColor=none;top=0;left=0;bottom=0;right=0;points=[[0,0.5],[1,0.5]];portConstraint=eastwest;" parent="KJd_LxnSjkqWvds_a51L-408" vertex="1">
                    <mxGeometry y="30" width="220" height="25" as="geometry"/>
                </mxCell>
                <mxCell id="KJd_LxnSjkqWvds_a51L-410" value="Name" style="shape=partialRectangle;html=1;whiteSpace=wrap;connectable=0;overflow=hidden;fillColor=none;top=0;left=0;bottom=0;right=0;pointerEvents=1;fontStyle=1" parent="KJd_LxnSjkqWvds_a51L-409" vertex="1">
                    <mxGeometry width="170" height="25" as="geometry">
                        <mxRectangle width="170" height="25" as="alternateBounds"/>
                    </mxGeometry>
                </mxCell>
                <mxCell id="KJd_LxnSjkqWvds_a51L-411" value="VLID" style="shape=partialRectangle;html=1;whiteSpace=wrap;connectable=0;overflow=hidden;fillColor=none;top=0;left=0;bottom=0;right=0;pointerEvents=1;fontStyle=1" parent="KJd_LxnSjkqWvds_a51L-409" vertex="1">
                    <mxGeometry x="170" width="50" height="25" as="geometry">
                        <mxRectangle width="50" height="25" as="alternateBounds"/>
                    </mxGeometry>
                </mxCell>
                <mxCell id="KJd_LxnSjkqWvds_a51L-413" value="" style="shape=partialRectangle;collapsible=0;dropTarget=0;pointerEvents=0;fillColor=none;top=0;left=0;bottom=0;right=0;points=[[0,0.5],[1,0.5]];portConstraint=eastwest;" parent="KJd_LxnSjkqWvds_a51L-408" vertex="1">
                    <mxGeometry y="55" width="220" height="24" as="geometry"/>
                </mxCell>
                <mxCell id="KJd_LxnSjkqWvds_a51L-414" value="1736StratfordArmsCt" style="shape=partialRectangle;html=1;whiteSpace=wrap;connectable=0;overflow=hidden;fillColor=none;top=0;left=0;bottom=0;right=0;pointerEvents=1;align=left;spacingLeft=6;" parent="KJd_LxnSjkqWvds_a51L-413" vertex="1">
                    <mxGeometry width="170" height="24" as="geometry">
                        <mxRectangle width="170" height="24" as="alternateBounds"/>
                    </mxGeometry>
                </mxCell>
                <mxCell id="KJd_LxnSjkqWvds_a51L-415" value="99" style="shape=partialRectangle;html=1;whiteSpace=wrap;connectable=0;overflow=hidden;fillColor=none;top=0;left=0;bottom=0;right=0;pointerEvents=1;align=center;spacingLeft=0;" parent="KJd_LxnSjkqWvds_a51L-413" vertex="1">
                    <mxGeometry x="170" width="50" height="24" as="geometry">
                        <mxRectangle width="50" height="24" as="alternateBounds"/>
                    </mxGeometry>
                </mxCell>
                <mxCell id="KJd_LxnSjkqWvds_a51L-417" value="" style="shape=partialRectangle;collapsible=0;dropTarget=0;pointerEvents=0;fillColor=none;top=0;left=0;bottom=0;right=0;points=[[0,0.5],[1,0.5]];portConstraint=eastwest;" parent="KJd_LxnSjkqWvds_a51L-408" vertex="1">
                    <mxGeometry y="79" width="220" height="25" as="geometry"/>
                </mxCell>
                <mxCell id="KJd_LxnSjkqWvds_a51L-418" value="1736StratfordArmsCt-Guest" style="shape=partialRectangle;html=1;whiteSpace=wrap;connectable=0;overflow=hidden;fillColor=none;top=0;left=0;bottom=0;right=0;pointerEvents=1;align=left;spacingLeft=6;" parent="KJd_LxnSjkqWvds_a51L-417" vertex="1">
                    <mxGeometry width="170" height="25" as="geometry">
                        <mxRectangle width="170" height="25" as="alternateBounds"/>
                    </mxGeometry>
                </mxCell>
                <mxCell id="KJd_LxnSjkqWvds_a51L-419" value="101" style="shape=partialRectangle;html=1;whiteSpace=wrap;connectable=0;overflow=hidden;fillColor=none;top=0;left=0;bottom=0;right=0;pointerEvents=1;align=center;spacingLeft=0;" parent="KJd_LxnSjkqWvds_a51L-417" vertex="1">
                    <mxGeometry x="170" width="50" height="25" as="geometry">
                        <mxRectangle width="50" height="25" as="alternateBounds"/>
                    </mxGeometry>
                </mxCell>
                <mxCell id="KJd_LxnSjkqWvds_a51L-421" value="" style="shape=partialRectangle;collapsible=0;dropTarget=0;pointerEvents=0;fillColor=none;top=0;left=0;bottom=0;right=0;points=[[0,0.5],[1,0.5]];portConstraint=eastwest;" parent="KJd_LxnSjkqWvds_a51L-408" vertex="1">
                    <mxGeometry y="104" width="220" height="25" as="geometry"/>
                </mxCell>
                <mxCell id="KJd_LxnSjkqWvds_a51L-422" value="1736StratfordArmsCt-IOT" style="shape=partialRectangle;html=1;whiteSpace=wrap;connectable=0;overflow=hidden;fillColor=none;top=0;left=0;bottom=0;right=0;pointerEvents=1;align=left;spacingLeft=6;" parent="KJd_LxnSjkqWvds_a51L-421" vertex="1">
                    <mxGeometry width="170" height="25" as="geometry">
                        <mxRectangle width="170" height="25" as="alternateBounds"/>
                    </mxGeometry>
                </mxCell>
                <mxCell id="KJd_LxnSjkqWvds_a51L-423" value="107" style="shape=partialRectangle;html=1;whiteSpace=wrap;connectable=0;overflow=hidden;fillColor=none;top=0;left=0;bottom=0;right=0;pointerEvents=1;align=center;spacingLeft=0;" parent="KJd_LxnSjkqWvds_a51L-421" vertex="1">
                    <mxGeometry x="170" width="50" height="25" as="geometry">
                        <mxRectangle width="50" height="25" as="alternateBounds"/>
                    </mxGeometry>
                </mxCell>
                <mxCell id="KJd_LxnSjkqWvds_a51L-434" style="shape=partialRectangle;collapsible=0;dropTarget=0;pointerEvents=0;fillColor=none;top=0;left=0;bottom=0;right=0;points=[[0,0.5],[1,0.5]];portConstraint=eastwest;" parent="KJd_LxnSjkqWvds_a51L-408" vertex="1">
                    <mxGeometry y="129" width="220" height="25" as="geometry"/>
                </mxCell>
                <mxCell id="KJd_LxnSjkqWvds_a51L-435" value="Randy's Nest (Deprecated)" style="shape=partialRectangle;html=1;whiteSpace=wrap;connectable=0;overflow=hidden;fillColor=none;top=0;left=0;bottom=0;right=0;pointerEvents=1;align=left;spacingLeft=6;" parent="KJd_LxnSjkqWvds_a51L-434" vertex="1">
                    <mxGeometry width="170" height="25" as="geometry">
                        <mxRectangle width="170" height="25" as="alternateBounds"/>
                    </mxGeometry>
                </mxCell>
                <mxCell id="KJd_LxnSjkqWvds_a51L-436" value="107" style="shape=partialRectangle;html=1;whiteSpace=wrap;connectable=0;overflow=hidden;fillColor=none;top=0;left=0;bottom=0;right=0;pointerEvents=1;align=center;spacingLeft=0;" parent="KJd_LxnSjkqWvds_a51L-434" vertex="1">
                    <mxGeometry x="170" width="50" height="25" as="geometry">
                        <mxRectangle width="50" height="25" as="alternateBounds"/>
                    </mxGeometry>
                </mxCell>
            </root>
        </mxGraphModel>
    </diagram>
</mxfile>